<svg xmlns="http://www.w3.org/2000/svg" width="676" height="676" fill="none" viewBox="0 0 676 676"><path fill="#E0E0E0" d="M130.306 548.236V558.403H206.423V548.236H130.306Z"/><path fill="#FAFAFA" d="M140.689 548.642C140.946 548.642 141.162 550.778 141.162 553.414C141.162 556.051 140.946 558.173 140.689 558.173C140.432 558.173 140.202 556.037 140.202 553.414C140.202 550.791 140.419 548.642 140.689 548.642Z"/><path fill="#FAFAFA" d="M139.026 548.438C139.297 548.438 139.499 550.575 139.499 553.198C139.499 555.82 139.297 557.97 139.026 557.97C138.756 557.97 138.553 555.834 138.553 553.198C138.553 550.561 138.756 548.438 139.026 548.438Z"/><path fill="#FAFAFA" d="M200.542 548.642C200.812 548.642 201.029 550.778 201.029 553.414C201.029 556.051 200.812 558.173 200.542 558.173C200.272 558.173 200.069 556.037 200.069 553.414C200.069 550.791 200.285 548.642 200.542 548.642Z"/><path fill="#FAFAFA" d="M198.893 548.438C199.15 548.438 199.366 550.575 199.366 553.198C199.366 555.82 199.15 557.97 198.893 557.97C198.636 557.97 198.406 555.834 198.406 553.198C198.406 550.561 198.622 548.438 198.893 548.438Z"/><path fill="#FAFAFA" d="M188.942 553.617C188.942 553.887 180.222 554.09 169.473 554.09C158.725 554.09 150.004 553.887 150.004 553.617C150.004 553.346 158.725 553.144 169.473 553.144C180.222 553.144 188.942 553.346 188.942 553.617Z"/><path fill="#E0E0E0" d="M129.981 594.015V614.349H206.099V594.015H129.981Z"/><path fill="#FAFAFA" d="M207.072 608.63C207.072 608.63 206.951 608.724 206.667 608.859C206.383 608.995 205.964 609.197 205.396 609.441C203.741 610.142 202.007 610.637 200.231 610.914C197.386 611.43 194.451 611.013 191.862 609.725C190.261 608.872 188.896 607.637 187.887 606.128C186.73 604.411 186.248 602.326 186.535 600.274C186.702 599.16 187.169 598.113 187.887 597.246C188.272 596.771 188.762 596.392 189.318 596.139C189.874 595.885 190.481 595.764 191.092 595.786C191.72 595.837 192.331 596.017 192.887 596.315C193.443 596.613 193.932 597.022 194.323 597.516C195.155 598.498 195.669 599.71 195.797 600.991C195.9 602.31 195.72 603.635 195.267 604.879C194.815 606.122 194.101 607.253 193.174 608.197C191.247 610.234 188.65 611.506 185.859 611.78C182.986 612.056 180.087 611.696 177.369 610.725C174.464 609.816 171.885 608.083 169.946 605.736C168.946 604.476 168.344 602.946 168.216 601.342C168.135 600.508 168.238 599.667 168.519 598.877C168.799 598.087 169.249 597.369 169.838 596.773C170.482 596.154 171.326 595.785 172.218 595.732C173.099 595.708 173.967 595.953 174.705 596.435C176.132 597.369 177.137 598.825 177.504 600.491C177.822 602.117 177.713 603.798 177.187 605.369C176.661 606.94 175.736 608.348 174.503 609.454C172.086 611.494 169.085 612.715 165.931 612.942C162.941 613.286 159.913 612.987 157.048 612.064C154.237 611.179 151.837 609.312 150.288 606.804C149.518 605.615 149.041 604.259 148.895 602.849C148.749 601.439 148.939 600.015 149.45 598.692C149.703 598.03 150.119 597.441 150.661 596.983C151.202 596.524 151.851 596.21 152.546 596.07C153.215 595.949 153.901 595.969 154.562 596.127C155.223 596.286 155.844 596.579 156.386 596.989C157.335 597.822 158.014 598.919 158.337 600.14C158.659 601.361 158.611 602.65 158.197 603.844C157.457 605.974 156.126 607.85 154.358 609.252C151.43 611.732 147.755 613.16 143.92 613.308C141.586 613.39 139.261 612.982 137.095 612.108C134.929 611.235 132.97 609.916 131.347 608.238C131.022 607.903 130.715 607.551 130.427 607.183C130.326 607.061 130.235 606.929 130.157 606.791C131.764 608.565 133.685 610.027 135.822 611.104C138.34 612.341 141.132 612.918 143.934 612.78C147.633 612.57 151.16 611.144 153.966 608.724C155.613 607.39 156.85 605.619 157.535 603.614C157.893 602.569 157.934 601.441 157.653 600.373C157.371 599.305 156.78 598.344 155.953 597.611C155.499 597.273 154.98 597.031 154.429 596.901C153.878 596.771 153.306 596.755 152.749 596.854C152.184 596.971 151.658 597.231 151.222 597.61C150.787 597.989 150.456 598.473 150.261 599.017C149.817 600.211 149.66 601.493 149.803 602.759C149.946 604.025 150.386 605.24 151.086 606.304C152.538 608.621 154.774 610.339 157.386 611.144C160.127 612.014 163.021 612.29 165.877 611.956C168.829 611.736 171.637 610.596 173.908 608.697C175.021 607.694 175.856 606.42 176.33 604.998C176.804 603.576 176.901 602.056 176.612 600.585C176.307 599.155 175.459 597.9 174.246 597.084C173.699 596.679 173.027 596.479 172.348 596.518C171.668 596.558 171.024 596.834 170.528 597.3C170.036 597.797 169.66 598.396 169.426 599.055C169.193 599.714 169.107 600.417 169.176 601.112C169.29 602.533 169.821 603.888 170.703 605.006C172.526 607.206 174.943 608.835 177.666 609.698C180.262 610.632 183.031 610.987 185.778 610.739C188.35 610.491 190.748 609.33 192.538 607.467C193.392 606.613 194.052 605.585 194.474 604.454C194.896 603.323 195.07 602.114 194.985 600.91C194.94 599.816 194.524 598.769 193.807 597.942C193.09 597.114 192.114 596.554 191.038 596.353C190.536 596.337 190.038 596.436 189.581 596.643C189.124 596.849 188.721 597.157 188.401 597.543C187.742 598.312 187.307 599.248 187.144 600.247C186.867 602.14 187.306 604.068 188.374 605.655C189.312 607.099 190.588 608.292 192.092 609.13C194.59 610.412 197.432 610.862 200.204 610.414C201.958 610.174 203.681 609.744 205.342 609.13C206.477 608.846 207.059 608.589 207.072 608.63Z"/><path fill="#EBEBEB" d="M136.782 558.687V593.974H206.099V558.687H136.782Z"/><path fill="#E0E0E0" d="M148.301 559.904C148.558 559.904 148.774 567.543 148.774 576.98C148.774 586.417 148.558 594.055 148.301 594.055C148.044 594.055 147.814 586.417 147.814 576.98C147.814 567.543 148.031 559.904 148.301 559.904Z"/><path fill="#E0E0E0" d="M153.56 559.458C153.817 559.458 154.033 567.015 154.033 576.317C154.033 585.619 153.817 593.176 153.56 593.176C153.303 593.176 153.073 585.632 153.073 576.317C153.073 567.002 153.29 559.458 153.56 559.458Z"/><path fill="#E0E0E0" d="M198.271 558.376C198.528 558.376 198.744 566.326 198.744 576.141C198.744 585.957 198.528 593.893 198.271 593.893C198.014 593.893 197.784 585.943 197.784 576.141C197.784 566.339 198 558.376 198.271 558.376Z"/><path fill="#E0E0E0" d="M192.092 558.809C192.349 558.809 192.565 566.542 192.565 576.101C192.565 585.659 192.349 593.393 192.092 593.393C191.835 593.393 191.605 585.659 191.605 576.101C191.605 566.542 191.822 558.809 192.092 558.809Z"/><path fill="#EBEBEB" d="M565.23 481.663C572.423 477.945 580.873 477.472 588.863 478.784C593.149 479.5 597.611 480.771 600.531 484.002C603.452 487.234 603.992 492.885 600.653 495.643C598.652 497.293 595.88 497.549 593.284 497.509C587.038 497.441 580.116 496.346 575.127 500.105C572.274 502.241 570.382 505.81 567.015 506.865C563.649 507.919 559.931 505.932 558.173 502.93C556.548 499.8 556.19 496.164 557.173 492.777C557.571 490.43 558.505 488.206 559.902 486.278C561.3 484.351 563.123 482.771 565.23 481.663Z"/><path fill="#EBEBEB" d="M548.763 449.878C553.157 456.151 561.702 454.069 565.663 450.243C569.625 446.417 571.301 440.86 572.815 435.56C576.303 423.473 579.805 410.778 577.223 398.461C576.604 394.725 574.961 391.234 572.477 388.375C571.221 386.966 569.618 385.91 567.827 385.312C566.036 384.715 564.12 384.596 562.27 384.968C557.97 386.117 555.293 390.376 553.36 394.338C547.663 406.186 544.675 419.155 544.613 432.302C544.613 438.413 545.316 444.821 548.763 449.878Z"/><path fill="#EBEBEB" d="M536.744 458.882C541.517 453.217 542.422 444.957 540.3 437.872C538.177 430.788 533.378 424.731 527.848 419.809C521.342 414.017 513.769 409.549 505.553 406.654C502.375 405.375 498.958 404.794 495.535 404.951C493.824 405.05 492.163 405.566 490.697 406.455C489.231 407.343 488.005 408.577 487.126 410.048C484.773 414.523 487.031 419.945 489.465 424.379C493.753 432.176 498.644 439.625 504.093 446.66C508.487 452.325 513.557 457.909 520.196 460.464C526.834 463.019 533.837 462.708 537.379 458.071"/><path fill="#E0E0E0" d="M548.466 544.545C548.698 543.61 548.834 542.654 548.872 541.692C549.074 539.624 549.318 537.014 549.629 533.918C550.016 530.083 550.598 526.27 551.373 522.494C552.39 517.883 553.778 513.361 555.523 508.974C557.236 504.616 559.553 500.52 562.405 496.806C564.73 493.779 567.699 491.308 571.098 489.572C573.409 488.438 575.88 487.667 578.426 487.288C579.385 487.258 580.337 487.122 581.265 486.882C580.304 486.776 579.334 486.776 578.372 486.882C575.728 487.083 573.141 487.756 570.733 488.869C567.158 490.56 564.02 493.054 561.567 496.157C558.585 499.927 556.179 504.118 554.428 508.595C552.682 513.034 551.325 517.617 550.372 522.291C549.636 526.111 549.126 529.971 548.845 533.85C548.601 537.149 548.507 539.826 548.466 541.679C548.365 542.631 548.365 543.592 548.466 544.545Z"/><path fill="#E0E0E0" d="M549.007 538.556C549.088 538.11 549.115 537.656 549.088 537.204C549.088 536.217 549.088 534.959 549.088 533.418C549.088 530.146 549.088 525.387 549.25 519.519C549.547 507.784 550.602 495.183 552.508 477.337C554.361 460.599 556.835 441.103 559.458 428.435C560.012 425.555 560.58 422.96 561.121 420.688C561.661 418.417 562.053 416.456 562.473 414.875C562.892 413.293 563.121 412.171 563.351 411.197C563.473 410.755 563.555 410.302 563.595 409.845C563.388 410.238 563.234 410.656 563.135 411.089C562.838 412.035 562.473 413.239 562.026 414.712C561.58 416.186 561.039 418.228 560.472 420.499C559.904 422.77 559.255 425.353 558.646 428.232C555.399 443.215 552.957 458.361 551.332 473.605C549.385 491.452 548.506 507.703 548.425 519.465C548.358 525.347 548.425 530.106 548.628 533.391C548.723 534.932 548.804 536.19 548.858 537.177C548.85 537.641 548.9 538.104 549.007 538.556Z"/><path fill="#E0E0E0" d="M549.088 507.216C549.191 505.902 549.191 504.582 549.088 503.268C548.939 500.727 548.588 497.049 547.871 492.561C547.009 487.298 545.849 482.089 544.396 476.959C542.691 470.646 540.508 464.472 537.866 458.49C533.343 447.465 526.851 437.354 518.708 428.652C517.289 427.165 515.781 425.766 514.193 424.46C513.503 423.879 512.841 423.298 512.273 422.838L510.529 421.635C509.477 420.832 508.36 420.117 507.189 419.499C507 419.755 511.908 422.635 518.1 429.233C525.976 438.011 532.296 448.071 536.785 458.977C539.368 464.917 541.549 471.024 543.315 477.256C545.032 482.988 546.168 488.261 547.033 492.696C547.898 497.13 548.317 500.808 548.601 503.309C548.658 504.622 548.821 505.929 549.088 507.216Z"/><path fill="#EBEBEB" d="M516.694 557.74L519.844 600.761H575.1L578.25 557.74H516.694Z"/><path fill="#EBEBEB" d="M584.835 540.786H511.354V557.74H584.835V540.786Z"/><path fill="#E0E0E0" d="M511.354 599.112V603.817H514.815H583.632V599.112H511.354Z"/><path fill="#E0E0E0" d="M518.194 611.563L514.814 603.303H580.995L577.047 611.563H518.194Z"/><path fill="#F5F5F5" d="M577.223 571.801C577.155 571.943 577.069 572.075 576.966 572.193C576.736 572.491 576.466 572.842 576.141 573.288L572.91 577.412L572.775 577.601L572.639 577.398C570.611 574.6 567.908 570.868 564.73 566.461H565.136L557.348 577.493L557.105 577.831L556.835 577.507L547.641 566.488H548.168L547.668 567.123L539.448 577.507L539.164 577.858L538.921 577.493C536.108 573.532 533.513 569.814 531.12 566.474H531.579L521.98 577.412L521.818 577.601L521.683 577.385L518.681 572.342C518.357 571.788 518.113 571.341 517.911 570.99C517.811 570.843 517.729 570.684 517.667 570.517C517.792 570.643 517.901 570.784 517.992 570.936L518.843 572.288L521.994 577.25H521.696L531.16 566.177L531.39 565.906L531.606 566.204L539.475 577.182H538.934L547.181 566.812L547.682 566.163L547.952 565.839L548.222 566.163L557.429 577.169H556.916L564.784 566.19L565.014 565.866L565.231 566.19L572.977 577.25H572.694C574.113 575.546 575.222 574.208 576.047 573.194L576.939 572.153C577.101 571.896 577.209 571.788 577.223 571.801Z"/><path fill="#F5F5F5" d="M579.021 557.457C579.021 557.646 565.163 557.795 548.087 557.795C531.012 557.795 517.154 557.646 517.154 557.457C517.154 557.267 530.998 557.119 548.087 557.119C565.177 557.119 579.021 557.267 579.021 557.457Z"/><path fill="#E0E0E0" d="M263.924 109.296C263.924 109.296 263.802 109.296 263.599 109.201L262.707 108.85L259.3 107.43L246.794 102.022L205.693 84.1215L204.26 83.486H204.558L164.281 100.778L152.113 105.889L148.788 107.241C148.409 107.415 148.015 107.555 147.611 107.66C147.97 107.446 148.345 107.26 148.733 107.105L152.005 105.618L164.173 100.278L204.355 82.8506H204.503H204.652L206.085 83.4725L247.105 101.589L259.503 107.146L262.856 108.701L263.721 109.12C263.795 109.17 263.863 109.229 263.924 109.296Z"/><path fill="#E0E0E0" d="M328.036 103.401H64.0037V301.104H328.036V103.401Z"/><path fill="#FAFAFA" d="M319.802 112.594H73.2378V292.978H319.802V112.594Z"/><path fill="#E0E0E0" d="M127.697 191.402C127.697 191.402 127.953 221.674 129.495 230.921L167.472 229.123C167.472 229.123 164.146 199.379 165.431 191.402H127.697Z"/><path fill="#fff" d="M146.408 195.675H146.962C147.491 195.655 148.02 195.682 148.544 195.756C149.376 195.879 150.187 196.12 150.951 196.472C151.962 196.973 152.856 197.683 153.574 198.554C154.456 199.614 155.08 200.863 155.399 202.205C155.696 203.775 155.56 205.397 155.007 206.896C154.724 207.711 154.366 208.499 153.939 209.249C153.485 210.012 153.079 210.802 152.722 211.615C151.965 213.339 151.446 215.158 151.181 217.023V217.144H151.059H147.314H143.38H143.231V217.009C143.062 215.154 142.435 213.37 141.406 211.817C140.946 211.033 140.446 210.317 140.054 209.573C139.563 208.873 139.112 208.147 138.702 207.396C138.008 205.96 137.8 204.338 138.107 202.773C138.328 201.421 138.83 200.132 139.581 198.987C140.222 198.067 141.063 197.304 142.041 196.756C143.249 196.116 144.573 195.725 145.935 195.607H146.476C146.476 195.607 146.476 195.607 146.341 195.607H145.935C145.419 195.668 144.908 195.767 144.407 195.904C143.608 196.113 142.839 196.427 142.122 196.837C141.166 197.378 140.347 198.132 139.729 199.041C139.031 200.176 138.571 201.441 138.377 202.759C138.082 204.276 138.291 205.847 138.972 207.234C139.386 207.973 139.837 208.691 140.324 209.384C140.797 210.1 141.298 210.844 141.757 211.628C142.824 213.216 143.471 215.049 143.637 216.955L143.488 216.806H147.422H151.181L151.032 216.942C151.302 215.053 151.83 213.211 152.6 211.466C152.971 210.646 153.387 209.847 153.844 209.073C154.264 208.34 154.617 207.571 154.899 206.774C155.446 205.321 155.591 203.747 155.318 202.218C155.01 200.909 154.414 199.685 153.574 198.635C152.876 197.775 152.006 197.07 151.018 196.567C150.27 196.205 149.473 195.955 148.652 195.823C148.138 195.744 147.618 195.699 147.098 195.688H146.679C146.462 195.688 146.408 195.688 146.408 195.675Z"/><path fill="#fff" d="M148.355 216.78C148.352 216.739 148.352 216.698 148.355 216.658V216.306C148.355 215.995 148.233 215.536 148.152 214.954C147.976 213.765 147.72 212.061 147.557 209.938C147.557 209.411 147.476 208.857 147.463 208.276C147.429 207.668 147.429 207.058 147.463 206.45C147.477 205.798 147.62 205.155 147.882 204.558C148.174 203.912 148.694 203.397 149.342 203.111C149.687 202.966 150.067 202.926 150.435 202.995C150.803 203.065 151.142 203.242 151.411 203.503C151.553 203.635 151.666 203.797 151.741 203.976C151.815 204.156 151.85 204.35 151.843 204.544C151.835 204.936 151.703 205.315 151.465 205.626C151.22 205.942 150.905 206.196 150.545 206.369C150.188 206.537 149.811 206.66 149.423 206.734C147.839 207.058 146.212 207.113 144.61 206.896C144.214 206.842 143.827 206.733 143.461 206.572C143.104 206.411 142.782 206.182 142.514 205.896C142.24 205.61 142.048 205.255 141.96 204.868C141.875 204.49 141.923 204.094 142.095 203.746C142.252 203.396 142.538 203.12 142.893 202.976C143.062 202.903 143.243 202.866 143.427 202.866C143.611 202.866 143.792 202.903 143.961 202.976C144.287 203.124 144.568 203.357 144.772 203.652C144.963 203.94 145.1 204.261 145.178 204.598C145.292 205.241 145.356 205.892 145.367 206.545L145.556 210.02C145.651 212.142 145.746 213.859 145.8 215.063C145.8 215.644 145.8 216.104 145.8 216.415V216.888C145.803 216.847 145.803 216.807 145.8 216.766C145.8 216.685 145.8 216.563 145.8 216.415C145.8 216.266 145.8 215.63 145.719 215.063C145.719 213.859 145.543 212.142 145.421 210.02C145.421 208.965 145.3 207.802 145.232 206.545C145.223 205.9 145.155 205.258 145.029 204.625C144.963 204.301 144.834 203.994 144.651 203.719C144.45 203.444 144.185 203.221 143.88 203.07C143.724 203.004 143.556 202.969 143.386 202.969C143.217 202.969 143.049 203.004 142.893 203.07C142.564 203.207 142.298 203.463 142.149 203.787C141.994 204.115 141.951 204.486 142.028 204.841C142.119 205.201 142.3 205.532 142.555 205.801C143.104 206.343 143.817 206.685 144.583 206.775C145.376 206.879 146.177 206.915 146.976 206.883C147.776 206.862 148.572 206.772 149.356 206.613C149.735 206.54 150.103 206.417 150.451 206.248C150.793 206.083 151.094 205.843 151.329 205.544C151.553 205.252 151.68 204.898 151.694 204.53C151.694 204.352 151.658 204.175 151.588 204.01C151.518 203.845 151.417 203.696 151.289 203.571C151.035 203.328 150.716 203.163 150.371 203.096C150.026 203.029 149.669 203.062 149.342 203.192C148.742 203.463 148.261 203.944 147.99 204.544C147.733 205.134 147.591 205.767 147.571 206.41C147.571 207.032 147.571 207.627 147.571 208.208C147.571 208.789 147.571 209.344 147.666 209.884C147.828 212.007 148.071 213.711 148.22 214.887C148.301 215.482 148.369 215.928 148.409 216.239V216.59C148.399 216.655 148.38 216.719 148.355 216.78Z"/><path fill="#fff" d="M143.312 216.982C143.374 217.399 143.41 217.819 143.42 218.24C143.42 219.141 143.474 220.236 143.582 221.525V221.444L146.151 224.432H146.016L148.977 224.27H148.855L150.315 222.485L151.059 221.579V221.701C151.059 219.957 150.978 218.321 150.951 216.834L151.113 216.982H145.583H143.312C143.487 216.958 143.664 216.958 143.839 216.982L145.394 216.901L151.018 216.685H151.181V216.847C151.181 218.348 151.275 219.984 151.329 221.714V221.728C151.086 222.025 150.843 222.336 150.586 222.634L149.112 224.432H149.031L146.07 224.581H146.016L143.501 221.593C143.501 220.241 143.501 219.159 143.501 218.213C143.414 217.807 143.351 217.396 143.312 216.982Z"/><path fill="#fff" d="M150.991 221.255C150.991 221.255 150.883 221.255 150.708 221.133C150.456 221.021 150.199 220.921 149.937 220.836C149.069 220.533 148.152 220.395 147.233 220.43C146.304 220.45 145.387 220.643 144.529 220.998L143.785 221.349L143.515 221.485C143.585 221.412 143.667 221.352 143.758 221.309C143.998 221.163 144.246 221.032 144.502 220.917C145.354 220.538 146.273 220.332 147.206 220.308C148.128 220.274 149.048 220.426 149.91 220.755C150.17 220.848 150.424 220.961 150.667 221.093L150.991 221.255Z"/><path fill="#fff" d="M150.978 220.078L150.708 219.957L149.937 219.646C149.067 219.351 148.151 219.213 147.233 219.24C146.306 219.274 145.391 219.466 144.529 219.808C144.204 219.943 143.961 220.065 143.785 220.16L143.515 220.295L143.758 220.119C143.996 219.973 144.244 219.847 144.502 219.74C145.353 219.357 146.272 219.146 147.206 219.119C148.127 219.098 149.044 219.249 149.91 219.565C150.234 219.7 150.491 219.822 150.667 219.916C150.843 220.011 150.991 220.065 150.978 220.078Z"/><path fill="#fff" d="M150.91 218.943L150.64 218.835C150.451 218.753 150.194 218.632 149.869 218.524C148.999 218.229 148.084 218.092 147.165 218.118C146.236 218.136 145.319 218.329 144.461 218.686C144.137 218.821 143.893 218.943 143.718 219.037L143.447 219.173L143.691 218.997C143.929 218.848 144.177 218.717 144.434 218.605C145.289 218.233 146.207 218.027 147.138 217.996C148.059 217.977 148.976 218.128 149.842 218.442C150.102 218.542 150.355 218.659 150.599 218.794C150.712 218.823 150.817 218.873 150.91 218.943Z"/><path fill="#EBEBEB" d="M85.4058 141.96C85.4058 141.96 85.6626 172.245 87.2039 181.479L125.182 179.681C125.182 179.681 121.842 149.937 123.127 141.96H85.4058Z"/><path fill="#fff" d="M117.408 154.615C113.192 155.239 108.944 155.618 104.685 155.75C100.439 156.142 96.1717 156.273 91.9089 156.142C96.1252 155.526 100.373 155.147 104.631 155.007C108.879 154.631 113.145 154.5 117.408 154.615Z"/><path fill="#fff" d="M117.408 161.023C113.193 161.658 108.945 162.041 104.685 162.172C100.442 162.548 96.1807 162.678 91.9224 162.564C96.1375 161.939 100.385 161.56 104.645 161.429C108.887 161.045 113.149 160.91 117.408 161.023Z"/><path fill="#fff" d="M110.959 167.323C108.577 167.837 106.149 168.109 103.712 168.135C101.294 168.381 98.8566 168.381 96.4382 168.135C98.8158 167.621 101.239 167.35 103.671 167.323C106.094 167.077 108.536 167.077 110.959 167.323Z"/><path fill="#EBEBEB" d="M83.6077 230.989C83.6077 230.989 83.8645 261.261 85.4058 270.508L123.384 268.71C123.384 268.71 120.044 238.966 121.328 230.989H83.6077Z"/><path fill="#fff" d="M115.609 243.698C111.395 244.331 107.147 244.714 102.887 244.847C98.6439 245.222 94.3826 245.353 90.1243 245.239C94.3348 244.614 98.5783 244.235 102.833 244.103C107.08 243.72 111.346 243.585 115.609 243.698Z"/><path fill="#fff" d="M115.609 250.12C111.394 250.746 107.146 251.125 102.887 251.256C98.6439 251.631 94.3826 251.762 90.1243 251.648C94.3394 251.023 98.5874 250.644 102.847 250.512C107.09 250.137 111.351 250.006 115.609 250.12Z"/><path fill="#fff" d="M109.16 256.42C106.783 256.933 104.359 257.2 101.927 257.218C99.5066 257.487 97.065 257.509 94.6399 257.286C97.0175 256.772 99.4409 256.501 101.873 256.474C104.294 256.206 106.736 256.188 109.16 256.42Z"/><path fill="#EBEBEB" d="M187.401 149.923L191.159 237.262L300.184 238.574L295.29 151.072L187.401 149.923Z"/><path fill="#F5F5F5" d="M294.439 149.301H186.13V231.084H294.439V149.301Z"/><path fill="#E0E0E0" d="M294.439 231.083C294.439 231.083 294.439 230.556 294.439 229.556C294.439 228.555 294.439 227.095 294.439 225.202C294.439 221.363 294.439 215.738 294.357 208.654C294.357 194.39 294.263 173.988 294.195 149.301L294.506 149.598H186.211L186.59 149.233C186.59 178.639 186.59 206.49 186.59 231.016L186.252 230.678L264.37 230.84L286.597 230.935H292.505H294.033H294.56H292.573L286.624 231.192L264.492 231.286L186.076 231.448H185.738V231.124C185.738 206.599 185.738 178.747 185.738 149.341V148.963H186.116H294.412H294.736V149.274C294.736 174.029 294.614 194.512 294.574 208.762C294.574 215.86 294.574 221.417 294.493 225.243C294.493 227.109 294.493 228.542 294.493 229.542C294.466 230.597 294.439 231.083 294.439 231.083Z"/><path fill="#F5F5F5" d="M243.103 166.62H199.204V221.876H243.103V166.62Z"/><path fill="#E0E0E0" d="M243.103 221.876C243.088 221.782 243.088 221.686 243.103 221.592V220.808C243.103 220.078 243.103 219.078 243.103 217.793C243.103 215.089 243.103 211.29 243.022 206.45C243.022 196.729 242.914 182.966 242.846 166.62L243.184 166.958H199.285C199.19 166.958 199.988 166.255 199.65 166.593V181.614C199.65 186.522 199.65 191.308 199.65 195.945C199.65 205.233 199.65 213.927 199.65 221.822L199.352 221.511L231.138 221.674L240.048 221.755H242.414H243.252C242.995 221.773 242.738 221.773 242.481 221.755H240.183L231.327 221.836L199.352 221.998H199.042V221.687C199.042 213.791 199.042 205.098 199.042 195.81C199.042 191.172 199.042 186.346 199.042 181.479V166.647C198.704 166.972 199.488 166.174 199.42 166.269H243.32H243.658V166.607C243.59 183.033 243.522 196.878 243.482 206.653L243.401 217.915C243.401 219.177 243.401 220.164 243.401 220.876C243.401 221.173 243.401 221.417 243.401 221.619C243.312 221.717 243.212 221.803 243.103 221.876Z"/><path fill="#F5F5F5" d="M285.015 153.979H200.88V161.942H285.015V153.979Z"/><path fill="#E0E0E0" d="M285.015 161.942C285.015 161.942 285.015 161.739 285.015 161.401C285.015 161.063 285.015 160.496 285.015 159.847C285.015 158.495 285.015 156.507 284.921 153.979L285.069 154.128C270.887 154.263 238.547 154.358 200.934 154.358C201.678 153.6 201.137 154.141 201.313 153.979V161.915L200.948 161.537L260.585 161.699L278.485 161.807H283.352H284.637C284.785 161.796 284.934 161.796 285.083 161.807H284.691H283.46H278.674L260.855 161.929L200.948 162.077H200.583V161.712C200.583 160.442 200.583 159.13 200.583 157.805V153.749L200.961 153.371C238.574 153.371 270.914 153.465 285.096 153.6H285.259V153.749C285.259 156.304 285.259 158.305 285.177 159.711C285.177 160.347 285.177 160.834 285.177 161.212C285.166 161.463 285.112 161.71 285.015 161.942Z"/><path fill="#F5F5F5" d="M285.015 166.62H248.47V199.92H285.015V166.62Z"/><path fill="#E0E0E0" d="M285.015 199.92C285.015 199.92 285.015 199.69 285.015 199.285V197.473C285.015 195.851 285.015 193.566 284.934 190.713C284.934 184.845 284.839 176.585 284.772 166.647L285.083 166.972H248.579L248.944 166.607V175.543C248.944 178.464 248.944 181.33 248.944 184.129C248.944 189.712 248.944 194.945 248.944 199.893L248.606 199.569L274.97 199.731L282.446 199.825H284.447C284.681 199.806 284.916 199.806 285.15 199.825C284.939 199.845 284.726 199.845 284.515 199.825H282.582L275.186 199.907L248.606 200.069H248.281V199.731C248.281 194.85 248.281 189.55 248.281 183.966C248.281 181.168 248.281 178.302 248.281 175.381V166.445C247.943 166.769 248.727 165.985 248.66 166.066H285.164H285.488V166.377C285.421 176.395 285.367 184.737 285.326 190.713C285.326 193.552 285.258 195.81 285.245 197.473C285.245 198.185 285.245 198.766 285.245 199.217C285.201 199.461 285.124 199.697 285.015 199.92Z"/><path fill="#F5F5F5" d="M285.015 205.139H248.47V221.876H285.015V205.139Z"/><path fill="#E0E0E0" d="M285.015 221.877C285.015 221.877 285.015 221.444 285.015 220.66L284.948 217.307C284.948 214.346 284.866 210.222 284.799 205.139L285.069 205.409L248.565 205.517C248.227 205.855 249.011 205.058 248.93 205.152V213.765C248.93 216.563 248.93 219.281 248.93 221.877L248.565 221.525L274.699 221.687L282.325 221.796H284.38H285.11C284.894 221.815 284.677 221.815 284.461 221.796H282.473L274.943 221.904L248.565 222.066H248.214V221.714C248.214 219.119 248.214 216.401 248.214 213.602V204.99C248.133 204.99 248.917 204.274 248.592 204.612L285.096 204.706H285.272V204.977C285.272 210.128 285.164 214.319 285.137 217.307C285.137 218.659 285.137 219.781 285.137 220.606C285.137 221.032 285.097 221.458 285.015 221.877Z"/><path fill="#fff" d="M242.008 166.715C228.407 185.494 212.778 203.097 199.19 221.876L242.008 166.715Z"/><path fill="#E0E0E0" d="M199.204 221.877C199.204 221.877 199.298 221.647 199.555 221.255L200.704 219.578C201.705 218.118 203.206 216.049 205.098 213.521C208.87 208.438 214.265 201.57 220.322 194.066C226.379 186.562 231.827 179.748 235.694 174.759L240.277 168.851L241.535 167.242C241.832 166.891 241.994 166.702 242.021 166.715C241.923 166.935 241.801 167.144 241.656 167.337L240.507 169.013C239.507 170.474 238.006 172.542 236.113 175.084C232.341 180.154 226.947 187.022 220.89 194.526C214.833 202.029 209.398 208.843 205.517 213.832L200.934 219.754L199.677 221.349C199.54 221.543 199.381 221.72 199.204 221.877Z"/><path fill="#E0E0E0" d="M243.103 221.876C242.941 221.998 232.977 209.708 220.863 194.485C208.749 179.261 199.041 166.755 199.231 166.62C199.42 166.485 209.344 178.788 221.471 194.025C233.599 209.262 243.265 221.728 243.103 221.876Z"/><path fill="#E0E0E0" d="M191.159 166.742C191.159 168.101 190.756 169.428 190.002 170.558C189.247 171.687 188.174 172.568 186.919 173.088C185.664 173.607 184.283 173.743 182.951 173.478C181.619 173.213 180.395 172.559 179.434 171.599C178.474 170.638 177.82 169.414 177.555 168.082C177.29 166.75 177.426 165.369 177.946 164.114C178.466 162.859 179.346 161.786 180.475 161.032C181.605 160.277 182.933 159.874 184.291 159.874C186.111 159.878 187.856 160.602 189.144 161.89C190.431 163.177 191.156 164.922 191.159 166.742Z"/><path fill="#E0E0E0" d="M303.497 150.072C303.497 151.43 303.094 152.758 302.339 153.888C301.585 155.017 300.512 155.897 299.257 156.417C298.002 156.937 296.621 157.073 295.289 156.808C293.956 156.543 292.733 155.889 291.772 154.928C290.812 153.968 290.157 152.744 289.892 151.412C289.627 150.079 289.763 148.698 290.283 147.443C290.803 146.188 291.683 145.116 292.813 144.361C293.942 143.606 295.27 143.204 296.629 143.204C298.449 143.207 300.194 143.932 301.481 145.219C302.769 146.506 303.493 148.251 303.497 150.072Z"/><path fill="#E0E0E0" d="M572.166 197.906H493.02V312.636H572.166V197.906Z"/><path fill="#F5F5F5" d="M568.205 197.906H489.059V312.636H568.205V197.906Z"/><path fill="#fff" d="M558.376 210.331H498.888V300.212H558.376V210.331Z"/><path fill="#E0E0E0" d="M558.376 300.212C558.376 300.212 558.376 300.049 558.376 299.765C558.376 299.481 558.376 299.049 558.376 298.494C558.376 297.359 558.376 295.709 558.376 293.56C558.376 289.26 558.376 282.974 558.376 275.051C558.376 259.205 558.376 236.762 558.281 210.331L558.484 210.533H498.888L499.104 210.317C499.104 244.225 499.104 275.483 499.104 300.198L498.929 300.022L542.193 300.117H554.158H557.295H558.39H557.335H554.225H542.301L498.902 300.198H498.726V300.036C498.726 275.321 498.726 244.063 498.726 210.155V209.938H498.888H558.376H558.565V210.128C558.565 236.613 558.498 259.097 558.471 275.024C558.471 282.933 558.471 289.193 558.471 293.492C558.471 295.615 558.471 297.251 558.471 298.373C558.471 298.927 558.471 299.333 558.471 299.63L558.376 300.212Z"/><path fill="#E0E0E0" d="M568.421 197.906C568.04 198.634 567.587 199.322 567.069 199.961C566.15 201.191 564.839 202.854 563.351 204.666C561.864 206.477 560.472 208.073 559.444 209.222C558.919 209.865 558.335 210.458 557.7 210.993C558.151 210.296 558.657 209.636 559.214 209.019L563.027 204.395L566.826 199.772C567.311 199.111 567.845 198.488 568.421 197.906Z"/><path fill="#fff" d="M558.674 299.914C561.627 304.62 565.106 308.974 569.043 312.893L558.674 299.914Z"/><path fill="#E0E0E0" d="M569.043 312.893C568.385 312.411 567.782 311.858 567.245 311.244C565.863 309.844 564.554 308.372 563.324 306.836C562.095 305.3 560.945 303.703 559.877 302.05C559.401 301.383 558.998 300.667 558.674 299.914C559.205 300.533 559.693 301.188 560.134 301.874C560.999 303.105 562.229 304.768 563.662 306.566C565.096 308.364 566.461 309.919 567.462 311.041C568.036 311.616 568.565 312.236 569.043 312.893Z"/><path fill="#fff" d="M489.045 312.542L499.415 299.752L489.045 312.542Z"/><path fill="#E0E0E0" d="M499.415 299.752C499.497 299.752 497.252 302.753 494.399 306.282C492.709 308.463 490.903 310.552 488.991 312.542C492.222 308.1 495.683 303.831 499.361 299.752H499.415Z"/><path fill="#E0E0E0" d="M489.059 197.906C490.835 199.826 492.514 201.834 494.088 203.922C495.767 205.93 497.333 208.028 498.78 210.209C496.998 208.28 495.319 206.258 493.75 204.152C492.068 202.162 490.501 200.076 489.059 197.906Z"/><path fill="#E0E0E0" d="M539.84 228.583H519.925V285.137H539.84V228.583Z"/><path fill="#E0E0E0" d="M553.926 75.9983L542.596 76.0596L542.901 132.437L554.231 132.376L553.926 75.9983Z"/><path fill="#EBEBEB" d="M473.781 76.1484L444.443 76.3071L444.612 107.43L473.95 107.271L473.781 76.1484Z"/><path fill="#F5F5F5" d="M502.97 76.0039L473.632 76.1626L473.8 107.285L503.138 107.126L502.97 76.0039Z"/><path fill="#E0E0E0" d="M444.484 84.9322C463.979 85.0945 483.529 84.9322 503.025 84.6618C503.108 84.6618 503.187 84.6291 503.245 84.5708C503.303 84.5124 503.336 84.4333 503.336 84.3509C503.336 84.2684 503.303 84.1893 503.245 84.131C503.187 84.0727 503.108 84.0399 503.025 84.0399C483.511 83.9318 463.997 84.0489 444.484 84.3914C444.412 84.3914 444.343 84.4199 444.292 84.4706C444.242 84.5213 444.213 84.5901 444.213 84.6618C444.213 84.7335 444.242 84.8023 444.292 84.853C444.343 84.9037 444.412 84.9322 444.484 84.9322Z"/><path fill="#EBEBEB" d="M479.45 106.767L426.141 107.056L426.279 132.419L479.587 132.13L479.45 106.767Z"/><path fill="#F5F5F5" d="M532.514 106.48L479.205 106.769L479.342 132.132L532.651 131.843L532.514 106.48Z"/><path fill="#E0E0E0" d="M426.177 114.122C461.6 114.528 497.13 114.122 532.539 113.595C532.622 113.595 532.701 113.562 532.759 113.504C532.817 113.446 532.85 113.366 532.85 113.284C532.85 113.201 532.817 113.122 532.759 113.064C532.701 113.006 532.622 112.973 532.539 112.973C497.117 112.784 461.586 112.811 426.177 113.581C426.106 113.581 426.037 113.61 425.986 113.661C425.935 113.711 425.907 113.78 425.907 113.852C425.907 113.924 425.935 113.992 425.986 114.043C426.037 114.094 426.106 114.122 426.177 114.122Z"/><path fill="#E0E0E0" d="M612.781 132.428H406.249V141.514H612.781V132.428Z"/><path fill="#E0E0E0" d="M448.445 136.795H440.062V167.796H448.445V136.795Z"/><path fill="#E0E0E0" d="M573.599 136.795H565.217V167.796H573.599V136.795Z"/><path fill="#EBEBEB" d="M564.979 54.9826L553.65 55.0439L554.069 132.58L565.399 132.519L564.979 54.9826Z"/><path fill="#F5F5F5" d="M582.688 69.4209L565.085 69.5161L565.425 132.356L583.028 132.261L582.688 69.4209Z"/><path fill="#E0E0E0" d="M582.563 81.5387C576.712 81.952 570.839 81.952 564.987 81.5387C570.839 81.1433 576.711 81.1433 582.563 81.5387Z"/><path fill="#E0E0E0" d="M582.563 78.9025C576.712 79.3158 570.839 79.3158 564.987 78.9025C570.839 78.5071 576.711 78.5071 582.563 78.9025Z"/><path fill="#E0E0E0" d="M582.563 122.816C576.712 123.229 570.839 123.229 564.987 122.816C570.839 122.42 576.711 122.42 582.563 122.816Z"/><path fill="#E0E0E0" d="M582.563 120.179C576.712 120.592 570.839 120.592 564.987 120.179C570.839 119.783 576.711 119.783 582.563 120.179Z"/><path fill="#E0E0E0" d="M574.046 114.42C573.87 114.42 573.735 108.079 573.735 100.264C573.735 92.4498 573.87 86.1089 574.046 86.1089C574.221 86.1089 574.343 92.4498 574.343 100.264C574.343 108.079 574.208 114.42 574.046 114.42Z"/><path fill="#EBEBEB" d="M601.91 84.8647H582.752V132.293H601.91V84.8647Z"/><path fill="#FAFAFA" d="M592.879 120.003C592.309 120.037 591.738 119.949 591.203 119.746C590.669 119.544 590.184 119.23 589.779 118.827C589.375 118.423 589.06 117.939 588.856 117.406C588.651 116.872 588.562 116.302 588.593 115.731C588.562 115.109 588.688 114.49 588.96 113.93C589.232 113.37 589.64 112.887 590.148 112.527L590.58 113.135C590.174 113.432 589.847 113.824 589.628 114.276C589.409 114.729 589.304 115.229 589.323 115.731C589.323 116.674 589.698 117.579 590.365 118.245C591.031 118.912 591.936 119.287 592.879 119.287C593.822 119.287 594.726 118.912 595.393 118.245C596.06 117.579 596.435 116.674 596.435 115.731C596.455 115.227 596.349 114.726 596.127 114.273C595.905 113.819 595.574 113.429 595.164 113.135L595.61 112.527C596.111 112.892 596.514 113.376 596.783 113.935C597.052 114.494 597.179 115.111 597.151 115.731C597.182 116.3 597.093 116.87 596.89 117.402C596.686 117.935 596.372 118.418 595.969 118.822C595.566 119.225 595.083 119.538 594.55 119.742C594.018 119.946 593.448 120.035 592.879 120.003Z"/><path fill="#FAFAFA" d="M596.07 111.35L595.434 110.985C596.099 110.111 596.455 109.042 596.448 107.943C596.448 106.172 595.813 105.456 594.866 105.456C592.406 105.456 594.218 111.053 590.905 111.053C589.634 111.053 588.593 109.985 588.593 107.849C588.577 106.824 588.863 105.817 589.418 104.955L590.067 105.334C589.557 106.077 589.293 106.961 589.31 107.862C589.31 109.512 589.986 110.242 590.892 110.242C593.42 110.242 591.635 104.645 594.853 104.645C596.205 104.645 597.151 105.834 597.151 107.984C597.192 109.198 596.81 110.388 596.07 111.35Z"/><path fill="#FAFAFA" d="M596.07 103.631L595.434 103.266C596.099 102.391 596.455 101.322 596.448 100.224C596.448 98.4526 595.813 97.736 594.866 97.736C592.406 97.736 594.218 103.32 590.905 103.32C589.634 103.32 588.593 102.265 588.593 100.129C588.577 99.1044 588.863 98.0976 589.418 97.2358L590.067 97.6008C589.559 98.3499 589.294 99.2376 589.31 100.143C589.31 101.792 589.986 102.522 590.892 102.522C593.42 102.522 591.635 96.9248 594.853 96.9248C596.205 96.9248 597.151 98.101 597.151 100.251C597.194 101.469 596.812 102.664 596.07 103.631Z"/><path fill="#E0E0E0" d="M559.147 71.5069C560.946 71.5069 562.405 70.0481 562.405 68.2486C562.405 66.449 560.946 64.9902 559.147 64.9902C557.347 64.9902 555.888 66.449 555.888 68.2486C555.888 70.0481 557.347 71.5069 559.147 71.5069Z"/><path fill="#E0E0E0" d="M560.147 77.1992H558.133V123.329H560.147V77.1992Z"/><path fill="#263238" d="M636.535 613.808C636.535 613.997 505.945 614.16 344.895 614.16C183.845 614.16 53.2283 614.024 53.2283 613.808C53.2283 613.592 183.791 613.457 344.895 613.457C506 613.457 636.535 613.646 636.535 613.808Z"/><path fill="#FAFAFA" d="M211.155 149.044C189.456 183.169 190.875 230.489 214.589 263.248C230.394 285.096 254.095 299.752 272.915 319.031C291.734 338.311 306.039 366.77 296.101 391.836C285.988 417.349 256.366 427.719 234.193 443.888C209.729 461.706 193.122 488.311 187.858 518.114C182.594 547.918 189.083 578.602 205.963 603.722H436.371C436.371 603.722 476.85 526.59 424.812 467.792C372.773 408.993 344.827 408.047 346.747 369.488C348.667 330.929 375.653 318.423 391.079 303.956C406.506 289.49 481.663 255.785 437.331 149.031L211.155 149.044Z"/><path fill="#263238" d="M211.155 149.045H215.117H226.798H271.765L437.331 148.923H437.507V149.085C440.901 157.168 443.791 165.454 446.16 173.894C448.648 182.731 450.287 191.786 451.054 200.934C451.852 210.497 451.361 220.124 449.594 229.556C447.654 239.333 444.138 248.731 439.184 257.38C436.617 261.792 433.715 266 430.504 269.967C427.226 273.988 423.68 277.782 419.891 281.324C416.053 284.931 412.032 288.338 407.844 291.532C403.653 294.777 399.273 297.832 395 301.077C392.864 302.686 390.944 304.497 388.862 306.309C386.78 308.121 384.712 309.811 382.575 311.514C378.317 314.921 374.017 318.274 369.961 322.046C361.496 329.384 354.991 338.714 351.033 349.195C349.132 354.57 347.932 360.169 347.464 365.851C347.342 367.203 347.153 368.69 347.099 370.124C347.045 371.557 346.991 372.99 347.099 374.423C347.13 377.3 347.419 380.169 347.964 382.995C349.036 388.72 351.373 394.134 354.805 398.84C358.337 403.546 362.337 407.881 366.743 411.779C375.491 419.769 384.779 427.408 393.662 435.655C402.544 443.902 411.238 452.501 419.62 461.6C423.897 466.104 427.897 470.862 431.599 475.85C435.323 480.9 438.56 486.291 441.266 491.952C446.737 503.426 450.099 515.791 451.189 528.456C452.292 541.297 451.536 554.229 448.945 566.853C447.686 573.231 446.033 579.526 443.997 585.7C441.995 591.926 439.556 598.003 436.696 603.884L436.601 604.074H205.774L205.68 603.925C194.875 587.657 188.248 568.975 186.387 549.534C184.514 530.86 187.253 512.011 194.363 494.643C201.121 478.041 211.527 463.171 224.81 451.135C231.256 445.445 238.218 440.367 245.604 435.966C252.797 431.504 260.057 427.367 266.912 422.852C273.773 418.563 280.076 413.44 285.678 407.601C291.027 401.867 294.994 394.986 297.278 387.483C299.279 380.164 299.593 372.485 298.197 365.027C296.863 357.828 294.462 350.87 291.072 344.382C287.83 338.134 283.942 332.243 279.472 326.806C275.157 321.589 270.467 316.695 265.438 312.163C255.69 303.186 245.699 295.331 236.722 287.26C232.219 283.204 227.961 279.147 224.026 274.997C220.213 270.933 216.698 266.6 213.508 262.031C207.741 253.652 203.295 244.436 200.326 234.707C197.725 226.305 196.216 217.604 195.837 208.816C195.648 206.815 195.729 204.842 195.729 202.908C195.729 200.975 195.729 199.096 195.905 197.27C196.08 195.445 196.175 193.661 196.31 191.862C196.446 190.064 196.811 188.455 197.04 186.819C198.534 176.861 201.582 167.198 206.072 158.184C206.68 156.79 207.375 155.435 208.154 154.128L209.817 151.302C210.696 149.802 211.169 149.045 211.169 149.045L209.817 151.343L208.208 154.128C207.448 155.441 206.762 156.795 206.153 158.184C201.703 167.22 198.693 176.895 197.23 186.86C197 188.482 196.729 190.159 196.527 191.876C196.324 193.593 196.256 195.391 196.121 197.216C195.986 199.041 195.986 200.921 195.972 202.841C195.959 204.76 195.905 206.734 196.094 208.735C196.485 217.493 198.007 226.164 200.623 234.532C203.589 244.226 208.03 253.406 213.792 261.747C216.974 266.297 220.485 270.608 224.297 274.645C228.218 278.809 232.476 282.865 236.978 286.813C245.956 294.925 255.906 302.699 265.722 311.69C270.79 316.255 275.516 321.185 279.864 326.44C284.359 331.917 288.269 337.849 291.532 344.138C294.954 350.667 297.378 357.671 298.724 364.918C300.14 372.457 299.826 380.219 297.805 387.618C295.511 395.208 291.506 402.169 286.097 407.966C280.468 413.839 274.138 418.997 267.25 423.325C260.368 427.854 253.108 431.991 245.929 436.453C238.573 440.842 231.64 445.902 225.216 451.568C212.015 463.542 201.67 478.327 194.945 494.832C187.877 512.112 185.161 530.864 187.036 549.439C188.897 568.769 195.491 587.343 206.234 603.519L205.964 603.371H436.371L436.061 603.56C438.915 597.694 441.346 591.63 443.334 585.416C445.36 579.268 447.003 573.001 448.256 566.65C450.835 554.088 451.587 541.22 450.486 528.443C449.417 515.847 446.078 503.549 440.63 492.142C437.943 486.522 434.734 481.167 431.045 476.147C427.352 471.186 423.37 466.445 419.12 461.951C410.783 452.875 402.143 444.24 393.202 436.047C384.333 427.813 375.072 420.188 366.297 412.157C361.856 408.227 357.82 403.861 354.251 399.124C350.752 394.36 348.355 388.879 347.234 383.076C346.693 380.208 346.399 377.3 346.355 374.382C346.288 372.936 346.355 371.489 346.355 370.042C346.355 368.596 346.599 367.163 346.707 365.73C347.203 360.013 348.43 354.383 350.357 348.978C354.349 338.405 360.915 328.995 369.461 321.6C373.517 317.842 377.857 314.435 382.116 311.041C384.252 309.338 386.347 307.621 388.389 305.863C390.43 304.105 392.445 302.213 394.554 300.59C398.853 297.345 403.22 294.29 407.398 291.059C411.573 287.879 415.585 284.49 419.417 280.905C423.182 277.379 426.71 273.608 429.977 269.616C433.162 265.662 436.05 261.478 438.616 257.096C443.542 248.507 447.04 239.173 448.972 229.461C450.731 220.106 451.226 210.557 450.446 201.069C449.69 191.922 448.065 182.868 445.592 174.029C443.256 165.566 440.402 157.253 437.047 149.139L437.277 149.288L271.806 149.166H226.811H215.103L211.155 149.045Z"/><path fill="#46A29F" d="M428.138 211.629C462.073 217.212 408.574 277.322 378.276 301.036C360.7 314.759 341.907 329.658 333.579 350.317C324.115 373.76 331.132 400.097 326.562 423.676C326.415 424.489 325.965 425.217 325.304 425.712C324.643 426.207 323.819 426.434 322.997 426.347C322.175 426.26 321.417 425.865 320.875 425.241C320.332 424.618 320.046 423.812 320.072 422.987C320.289 407.506 319.883 392.039 317.368 376.802C313.732 355.17 305.43 333.822 290.328 317.99C277.958 305.052 261.747 296.467 248.565 284.38C229.313 266.736 209.533 243.982 207.6 217.942C207.6 217.942 244.563 188.198 265.087 191.916C289.071 196.31 312.677 233.315 349.83 229.083C375.68 226.122 388.781 205.166 428.138 211.629Z"/><path fill="#46A29F" d="M431.153 533.337C430.301 524.846 428.03 515.247 420.499 511.245C415.943 508.812 410.386 509.082 405.384 510.393C400.381 511.705 395.69 513.99 390.741 515.463C380.904 518.356 370.399 518.02 360.768 514.504C351.56 511.124 343.665 505.04 335.08 500.199C326.494 495.359 316.53 491.817 307.012 494.183C290.599 498.239 282.054 518.032 265.83 522.805C258.61 524.914 250.863 523.724 243.536 522.075C236.208 520.425 228.839 518.276 221.336 518.56C215.441 518.776 209.317 520.817 205.193 524.846L205.085 524.968C204.398 525.641 203.774 526.374 203.219 527.158C198.19 533.918 197.378 542.882 198.933 551.075C200.664 560.255 204.95 568.732 209.546 576.858C214.954 586.43 221.119 595.948 230.07 602.329C241.129 610.212 255.014 604.777 268.548 605.845C300.09 608.332 334.025 610.022 365.581 607.589C382.251 606.237 397.866 608.103 411.089 597.868C420.391 590.675 426.448 579.832 429.368 568.448C432.288 557.065 432.329 545.032 431.153 533.337Z"/><g opacity=".24"><path fill="#000" d="M371.611 517.086C369.839 519.79 369.069 523.467 370.786 526.225C372.503 528.984 374.842 531.512 375.572 534.689C376.748 539.664 373.747 544.532 371.516 549.142C367.387 557.385 365.828 566.678 367.041 575.817C368.32 584.986 373.055 593.32 380.277 599.112C383.481 601.586 387.645 603.506 391.512 602.289C395.149 601.153 397.488 597.462 398.272 593.717C399.056 589.972 398.394 586.119 397.921 582.347C395.719 564.767 396.174 546.955 399.273 529.511C399.786 526.604 400.273 523.278 398.434 520.966C397.108 519.62 395.423 518.682 393.581 518.262C386.55 515.923 378.965 518.519 371.678 517.14" opacity=".24"/></g><path fill="#263238" d="M189.05 614.186C189.05 614.186 188.415 603.613 202.205 597.719H444.551C444.551 597.719 457.192 604.127 458.747 613.943L189.05 614.186Z"/><path fill="#263238" d="M439.4 150.329L439.008 150.504L211.128 149.044C211.128 149.044 210.317 148.531 209.114 147.571C207.693 146.458 206.657 144.928 206.15 143.196C205.643 141.464 205.691 139.617 206.288 137.914C206.884 136.211 207.999 134.737 209.476 133.7C210.953 132.663 212.717 132.114 214.522 132.131L435.709 133.915C444.808 133.997 447.674 146.435 439.4 150.329Z"/><g opacity=".24"><path fill="#000" d="M402.896 237.262C403.356 238.141 401.639 239.966 398.38 242.941C395.122 245.915 390.268 249.822 384.238 254.73C376.998 260.712 369.315 266.135 361.254 270.954C356.247 273.853 350.978 276.275 345.517 278.187C342.558 279.21 339.537 280.046 336.472 280.688C333.253 281.372 329.984 281.797 326.697 281.959C320.036 282.322 313.368 281.404 307.053 279.255C301.469 277.225 296.164 274.499 291.261 271.143C286.719 268.142 282.811 265.167 279.093 262.315C275.375 259.462 272.063 256.717 269.061 254.122C257.096 243.752 250.796 236.127 252.013 234.653C253.23 233.179 261.747 237.979 274.997 246.091L285.813 252.716C289.693 255.068 293.844 257.677 298.089 260.084C302.302 262.557 306.766 264.574 311.406 266.1C316.154 267.522 321.113 268.108 326.062 267.831C336.445 267.29 346.518 263.64 355.238 259.421C363.958 255.203 371.854 250.282 378.695 246.442C384.109 243.247 389.769 240.49 395.622 238.195C399.908 236.694 402.504 236.41 402.896 237.262Z" opacity=".24"/></g><path fill="#46A29F" d="M320.235 451.919C321.193 451.538 322.262 451.55 323.212 451.951C324.161 452.353 324.914 453.113 325.308 454.065C325.701 455.018 325.704 456.088 325.315 457.042C324.926 457.997 324.176 458.76 323.228 459.166C322.281 459.572 321.211 459.589 320.252 459.212C319.292 458.836 318.519 458.096 318.101 457.154C317.682 456.212 317.652 455.143 318.016 454.178C318.38 453.214 319.109 452.431 320.045 452"/><path fill="#263238" d="M238.736 274.97C238.44 274.727 238.168 274.455 237.925 274.159L235.721 271.752C234.788 270.684 233.558 269.44 232.3 267.858L228.001 262.45C226.527 260.368 224.864 258.124 223.188 255.69L220.714 251.756C220.295 251.08 219.849 250.404 219.443 249.687L218.253 247.497C214.655 241.12 211.836 234.334 209.857 227.285C207.869 220.241 206.796 212.971 206.667 205.653C206.667 203.963 206.761 202.327 206.788 200.718C206.788 199.92 206.788 199.136 206.896 198.366C207.005 197.595 207.059 196.838 207.14 196.094C207.315 194.607 207.424 193.16 207.626 191.781C207.829 190.402 208.113 189.077 208.343 187.847C208.722 185.319 209.398 183.115 209.871 181.087C210.128 180.113 210.33 179.194 210.587 178.383L211.331 176.125L212.372 173.029C212.471 172.66 212.607 172.303 212.778 171.961C212.722 172.338 212.631 172.709 212.507 173.07C212.277 173.854 211.98 174.895 211.588 176.206L210.912 178.464C210.682 179.289 210.493 180.208 210.249 181.168C209.817 183.128 209.181 185.346 208.897 187.928C208.681 189.172 208.465 190.483 208.235 191.849C208.005 193.214 207.951 194.648 207.789 196.135C207.789 196.878 207.64 197.622 207.559 198.393C207.478 199.163 207.559 199.947 207.478 200.732C207.478 202.327 207.37 203.949 207.383 205.626C207.515 212.901 208.574 220.129 210.533 227.136C212.502 234.134 215.283 240.877 218.821 247.227C219.213 247.957 219.605 248.687 219.984 249.417C220.362 250.147 220.835 250.769 221.241 251.472L223.675 255.406C225.324 257.894 226.96 260.138 228.393 262.166L232.611 267.574C233.828 269.183 235.031 270.441 235.924 271.549L238.033 274.05C238.286 274.342 238.521 274.649 238.736 274.97Z"/><path fill="#263238" d="M225.906 475.822C225.972 475.666 226.054 475.517 226.149 475.376L226.96 474.105C227.325 473.538 227.771 472.862 228.312 472.05L229.164 470.698C229.502 470.252 229.894 469.806 230.286 469.346L232.99 466.102C234.031 464.979 235.221 463.817 236.478 462.546C239.393 459.739 242.492 457.128 245.753 454.731C252.932 449.323 262.193 443.915 272.225 437.574C277.5 434.324 282.571 430.752 287.408 426.88C292.598 422.746 297.181 417.904 301.023 412.495C308.055 401.69 311.876 389.111 312.041 376.221C312.213 365.714 310.453 355.266 306.85 345.395C304.463 338.734 301.467 332.307 297.9 326.197C296.642 324.02 295.615 322.37 294.912 321.248L294.114 319.977C293.938 319.693 293.857 319.531 293.857 319.531C293.978 319.653 294.082 319.789 294.168 319.937L295.033 321.181C295.777 322.262 296.845 323.885 298.129 326.061C301.807 332.139 304.886 338.56 307.323 345.233C311.023 355.144 312.857 365.655 312.731 376.234C312.674 379.284 312.425 382.328 311.987 385.347C311.549 388.504 310.885 391.626 310 394.689C308.153 401.174 305.282 407.322 301.496 412.9C297.614 418.368 292.981 423.261 287.732 427.434C282.866 431.31 277.769 434.886 272.468 438.142C262.396 444.429 253.121 449.783 245.942 455.15C242.682 457.515 239.575 460.085 236.64 462.843C235.383 464.101 234.18 465.236 233.125 466.345L230.421 469.522C230.016 470.009 229.624 470.455 229.286 470.874L228.407 472.159L227.055 474.173L226.189 475.403C226.106 475.55 226.011 475.691 225.906 475.822Z"/><path fill="#263238" d="M213.332 499.713C213.25 499.932 213.151 500.145 213.035 500.348L212.061 502.065C211.628 502.795 211.115 503.715 210.587 504.769C210.06 505.824 209.384 507.067 208.816 508.487C208.519 509.19 208.194 509.92 207.87 510.677C207.545 511.434 207.275 512.273 206.951 513.111C206.302 514.787 205.788 516.626 205.193 518.519C202.841 526.994 202.031 535.823 202.8 544.585C203.03 546.586 203.192 548.506 203.544 550.264C203.692 551.143 203.814 552.008 203.99 552.819C204.165 553.63 204.355 554.415 204.53 555.158C204.828 556.659 205.274 557.97 205.599 559.133C205.923 560.296 206.248 561.296 206.545 562.107L207.18 563.973C207.272 564.184 207.331 564.407 207.356 564.636C207.226 564.448 207.121 564.243 207.045 564.027C206.842 563.527 206.599 562.932 206.288 562.202C205.879 561.239 205.523 560.256 205.22 559.255C204.855 558.092 204.382 556.781 204.044 555.28C203.854 554.536 203.665 553.752 203.462 552.941C203.26 552.13 203.138 551.251 202.962 550.372C202.584 548.587 202.394 546.668 202.151 544.653C201.305 535.837 202.121 526.94 204.558 518.424C205.166 516.477 205.707 514.625 206.396 512.949C206.734 512.11 207.005 511.286 207.356 510.515L208.357 508.311C208.952 506.959 209.709 505.702 210.236 504.62C210.712 503.69 211.24 502.787 211.818 501.916L212.899 500.253C213.17 499.888 213.305 499.699 213.332 499.713Z"/><path fill="#263238" d="M380.48 532.214L380.209 532.404L379.371 532.931L376.086 534.905L373.706 536.257C372.814 536.757 371.827 537.217 370.772 537.744C368.636 538.772 366.284 540.083 363.499 541.138L359.172 542.909C357.671 543.504 356.036 543.977 354.386 544.545C351.101 545.748 347.45 546.613 343.651 547.6C326.97 551.507 309.667 551.967 292.803 548.952C288.936 548.168 285.258 547.492 281.905 546.464C280.229 545.978 278.579 545.599 277.038 545.112L272.631 543.504C269.805 542.598 267.371 541.421 265.195 540.502C264.113 540.029 263.099 539.61 262.193 539.15L259.733 537.866L256.353 536.068L255.487 535.581L255.203 535.405C255.203 535.405 255.325 535.405 255.528 535.527L256.42 535.946L259.854 537.622L262.328 538.839C263.248 539.272 264.275 539.664 265.357 540.124C267.534 540.989 269.967 542.138 272.806 543.003L277.16 544.585C278.701 545.099 280.351 545.464 282.027 545.937C285.367 546.938 289.03 547.573 292.843 548.344C309.63 551.251 326.827 550.791 343.435 546.992C347.22 546.018 350.857 545.194 354.143 544.017C355.792 543.463 357.415 543.017 358.915 542.422L363.242 540.705C366.027 539.677 368.393 538.407 370.529 537.42C371.584 536.906 372.584 536.46 373.476 536.068L375.883 534.716L379.222 532.85L380.101 532.39C380.372 532.241 380.48 532.201 380.48 532.214Z"/><path fill="#263238" d="M394.581 246.064C394.498 246.162 394.403 246.248 394.297 246.321L393.405 247.051C392.58 247.713 391.431 248.646 389.957 249.755C386.956 252.134 382.602 255.582 377.1 259.692C370.696 264.594 363.981 269.074 356.995 273.104C352.841 275.429 348.511 277.422 344.043 279.066C339.225 280.82 334.198 281.938 329.09 282.392C319.16 282.95 309.257 280.889 300.374 276.416C296.532 274.465 292.824 272.261 289.274 269.819C285.975 267.493 282.96 265.235 280.297 263.059C274.889 258.759 270.751 255.122 267.831 252.635L264.492 249.741L263.64 248.984L263.356 248.7C263.356 248.7 263.478 248.7 263.68 248.917L264.586 249.633L268.007 252.418C270.981 254.852 275.227 258.421 280.607 262.667C283.311 264.789 286.299 267.02 289.612 269.318C293.149 271.718 296.839 273.886 300.658 275.808C309.453 280.192 319.238 282.209 329.05 281.662C334.096 281.215 339.063 280.115 343.827 278.39C348.264 276.768 352.567 274.802 356.698 272.509C363.673 268.552 370.396 264.168 376.829 259.381C382.345 255.325 386.739 251.945 389.809 249.633L393.337 246.929L394.27 246.253C394.364 246.175 394.469 246.111 394.581 246.064Z"/><g opacity=".24"><path fill="#000" d="M272.644 543.571C279.053 538.623 288.057 539.813 295.98 541.489C303.903 543.166 311.879 545.856 319.897 544.734C325.94 543.882 331.483 540.921 337.473 539.624C343.462 538.326 350.668 539.286 353.981 544.41C327.506 552.94 298.978 552.646 272.685 543.571" opacity=".24"/></g><path fill="#46A29F" d="M496.184 506.879L467.116 474.282L466.819 513.909L475.58 539.327L388.484 554.428L384.793 485.706L378.52 432.978C378.147 429.835 378.826 426.656 380.45 423.939C382.074 421.221 384.552 419.118 387.497 417.958L411.468 408.494L445.268 414.686L458.855 419.85C464.552 422.02 469.631 425.552 473.646 430.139L514.531 476.891"/><path fill="#fff" d="M465.088 466.44C466.729 466.418 468.368 466.3 469.996 466.089C473.917 465.49 477.571 463.734 480.488 461.046C483.405 458.358 485.453 454.86 486.369 451C486.705 449.388 486.953 447.759 487.112 446.12C487.222 446.561 487.263 447.017 487.234 447.472C487.244 448.699 487.117 449.923 486.855 451.122C486.037 455.137 483.976 458.792 480.965 461.57C477.953 464.349 474.144 466.109 470.077 466.602C468.862 466.759 467.634 466.787 466.413 466.684C465.961 466.674 465.514 466.592 465.088 466.44Z"/><path fill="#263238" d="M467.616 512.219C467.819 512.219 467.873 498.483 467.738 481.556C467.603 464.629 467.319 450.906 467.116 450.906C466.913 450.906 466.859 464.629 466.994 481.569C467.13 498.51 467.413 512.219 467.616 512.219Z"/><path fill="#46A29F" d="M464.426 522.291L411.806 501.105C409.726 500.268 407.921 498.866 406.595 497.058C405.269 495.249 404.475 493.106 404.302 490.871L400.449 440.414C400.449 440.414 400.909 418.944 387.497 417.903L379.912 420.905C370.056 426.137 367.622 440.495 368.961 451.568C370.867 467.305 371.665 489.586 373.788 503.242C375.545 514.423 381.9 524.252 392.878 527.131L457.693 541.165L464.426 522.291Z"/><path fill="#263238" d="M401.206 448.107C401.294 448.484 401.348 448.869 401.368 449.256C401.449 450.081 401.571 451.189 401.706 452.582C401.977 455.543 402.355 459.707 402.815 464.818C403.275 469.928 403.788 476.161 404.383 482.975C404.518 484.692 404.667 486.436 404.816 488.221C404.92 490.036 405.146 491.843 405.492 493.629C405.859 495.434 406.775 497.082 408.115 498.347C409.556 499.615 411.196 500.638 412.968 501.376C427.475 507.649 440.847 512.841 450.554 516.478L462.087 520.723L465.223 521.872C465.59 521.993 465.947 522.142 466.291 522.318C465.909 522.248 465.533 522.144 465.169 522.007L461.992 520.98C459.288 520.06 455.232 518.695 450.392 516.924C440.617 513.409 427.232 508.298 412.671 502.052C410.829 501.278 409.126 500.209 407.628 498.888C406.19 497.523 405.208 495.748 404.816 493.805C404.467 491.993 404.245 490.158 404.153 488.315C404.005 486.517 403.869 484.773 403.734 483.056C403.207 476.296 402.72 470.077 402.382 464.885C402.044 459.694 401.706 455.597 401.49 452.636C401.395 451.284 401.328 450.121 401.287 449.297C401.226 448.903 401.199 448.505 401.206 448.107Z"/><path fill="#263238" d="M371.056 475.539C371.111 475.761 371.142 475.987 371.151 476.215L371.327 478.162C371.489 479.96 371.692 482.38 371.949 485.328C372.206 488.275 372.611 491.939 373.138 495.914C373.656 500.218 374.446 504.486 375.504 508.69C376.002 510.856 376.871 512.919 378.073 514.788C379.248 516.504 380.564 518.118 382.008 519.614C384.468 522.146 387.31 524.276 390.431 525.928C393.339 527.406 396.458 528.428 399.678 528.956C399.449 528.986 399.218 528.986 398.989 528.956C398.335 528.913 397.685 528.827 397.042 528.7C394.664 528.257 392.36 527.478 390.201 526.388C386.993 524.773 384.07 522.645 381.548 520.087C380.053 518.575 378.696 516.933 377.492 515.18C376.229 513.259 375.314 511.131 374.788 508.893C373.715 504.656 372.933 500.352 372.449 496.008C371.962 491.952 371.638 488.41 371.421 485.382C371.205 482.353 371.083 479.892 371.016 478.189C371.016 477.405 371.016 476.756 371.016 476.229C370.993 475.998 371.006 475.765 371.056 475.539Z"/><path fill="#263238" d="M393.554 510.84C393.692 509.854 394.018 508.904 394.514 508.041C395.598 505.887 397.101 503.97 398.935 502.403C400.769 500.836 402.897 499.65 405.194 498.915C406.126 498.56 407.118 498.39 408.115 498.415C407.23 498.784 406.328 499.109 405.411 499.389C403.237 500.229 401.221 501.432 399.448 502.944C397.68 504.46 396.176 506.261 395 508.271C394.054 509.826 393.662 510.881 393.554 510.84Z"/><path fill="#fff" d="M403.91 472.47C404.025 472.504 404.134 472.554 404.235 472.619L405.181 473.119C406.401 473.72 407.656 474.248 408.94 474.701C413.671 476.361 418.745 476.798 423.69 475.972C431.035 474.661 437.598 470.582 442.023 464.574C444.668 461.104 446.326 456.984 446.823 452.65C447.068 450.372 446.829 448.068 446.12 445.89C445.372 443.666 444.069 441.669 442.334 440.089C440.624 438.489 438.47 437.443 436.155 437.088C435.059 436.892 433.931 436.947 432.859 437.249C431.786 437.551 430.796 438.092 429.963 438.832C429.209 439.571 428.772 440.575 428.746 441.631C428.77 442.68 429.13 443.695 429.774 444.524C430.445 445.325 431.269 445.985 432.197 446.466C433.126 446.946 434.14 447.237 435.182 447.323C438.843 447.779 442.56 447.309 445.993 445.955C449.425 444.602 452.462 442.408 454.826 439.576C456.619 437.372 457.968 434.842 458.801 432.126C459.423 430.068 459.759 427.935 459.802 425.785C459.817 424.427 459.717 423.071 459.504 421.729C459.423 421.31 459.356 420.959 459.315 420.688C459.303 420.567 459.303 420.445 459.315 420.323C459.874 422.071 460.148 423.897 460.126 425.731C460.14 427.913 459.84 430.085 459.234 432.18C457.729 437.231 454.479 441.584 450.065 444.464C445.65 447.343 440.357 448.562 435.128 447.904C434.011 447.805 432.925 447.487 431.932 446.967C430.939 446.448 430.059 445.737 429.341 444.876C428.607 443.931 428.199 442.773 428.179 441.577C428.18 440.346 428.665 439.166 429.531 438.291C430.439 437.48 431.518 436.884 432.689 436.547C433.859 436.21 435.09 436.141 436.291 436.344C438.75 436.709 441.038 437.818 442.848 439.522C444.678 441.176 446.048 443.277 446.823 445.619C447.559 447.885 447.808 450.281 447.553 452.65C447.025 457.078 445.311 461.283 442.591 464.818C438.838 469.939 433.51 473.69 427.423 475.497C421.336 477.304 414.825 477.067 408.886 474.822C407.131 474.261 405.458 473.47 403.91 472.47Z"/><path fill="#fff" d="M369.434 459.018C369.662 458.613 369.955 458.248 370.299 457.936C371.163 457.022 372.114 456.193 373.139 455.462C376.59 453.09 380.605 451.668 384.779 451.338C387.07 451.081 389.386 451.176 391.647 451.622C393.485 452.004 395.263 452.632 396.934 453.488C398.055 454.053 399.131 454.704 400.152 455.435C400.546 455.677 400.902 455.978 401.206 456.327C401.125 456.435 399.557 455.246 396.717 453.934C393.016 452.218 388.912 451.563 384.86 452.041C380.792 452.363 376.865 453.676 373.422 455.868C370.813 457.612 369.529 459.112 369.434 459.018Z"/><path fill="#fff" d="M377.857 422.933C379.14 424.141 380.571 425.182 382.116 426.029C383.803 426.894 385.637 427.435 387.524 427.625C389.82 427.855 392.139 427.53 394.284 426.678C396.387 425.781 398.242 424.39 399.692 422.622C400.889 421.147 401.805 419.466 402.396 417.66C402.882 415.965 403.159 414.217 403.22 412.455C403.352 412.921 403.411 413.404 403.396 413.888C403.419 415.214 403.241 416.536 402.869 417.809C402.318 419.709 401.399 421.482 400.165 423.028C398.683 424.967 396.714 426.479 394.458 427.409C392.202 428.34 389.739 428.657 387.321 428.328C385.36 428.105 383.463 427.499 381.737 426.543C380.575 425.905 379.517 425.094 378.601 424.136C378.281 423.784 378.029 423.376 377.857 422.933Z"/><path fill="#fff" d="M423.717 505.905C423.719 505.569 423.755 505.234 423.825 504.905C424.014 503.966 424.328 503.056 424.758 502.201C426.477 499.052 429.269 496.624 432.626 495.359C437.568 493.395 443.037 493.199 448.107 494.805C450.892 495.63 454.083 496.657 456.219 499.375C456.756 500.069 457.095 500.895 457.2 501.767C457.305 502.638 457.171 503.522 456.814 504.323C455.998 505.887 454.678 507.13 453.069 507.852C451.515 508.621 449.813 509.045 448.08 509.096C446.359 509.179 444.664 508.652 443.294 507.609C442.661 507.069 442.145 506.405 441.778 505.659C441.411 504.913 441.2 504.099 441.158 503.269C441.069 501.716 441.313 500.163 441.874 498.712C443.912 493.784 447.792 489.845 452.69 487.734C455.94 486.286 459.5 485.673 463.046 485.95C464.338 486.048 465.611 486.316 466.832 486.747C466.832 486.842 465.48 486.396 463.019 486.22C460.081 486.061 457.141 486.502 454.379 487.518C451.618 488.534 449.092 490.103 446.958 492.128C444.976 494.027 443.43 496.333 442.428 498.888C441.904 500.253 441.678 501.714 441.766 503.174C441.805 503.914 441.996 504.637 442.326 505.3C442.656 505.963 443.119 506.551 443.686 507.027C444.922 507.977 446.455 508.456 448.012 508.379C449.638 508.337 451.234 507.94 452.69 507.216C454.16 506.561 455.369 505.433 456.124 504.012C456.429 503.322 456.542 502.562 456.451 501.812C456.361 501.063 456.07 500.352 455.61 499.753C454.667 498.563 453.459 497.609 452.082 496.968C450.746 496.33 449.358 495.809 447.931 495.414C442.995 493.816 437.662 493.955 432.816 495.806C429.531 496.994 426.767 499.295 425.001 502.309C424.416 503.445 423.984 504.655 423.717 505.905Z"/><path fill="#fff" d="M388.673 524.901C388.673 524.765 390.674 524.603 393.716 523.549C397.687 522.15 401.245 519.779 404.065 516.652C406.885 513.525 408.877 509.742 409.859 505.648C410.63 502.511 410.603 500.47 410.738 500.483C410.832 500.95 410.855 501.429 410.805 501.903C410.774 503.199 410.62 504.489 410.346 505.756C409.469 509.982 407.481 513.898 404.587 517.1C401.692 520.301 397.995 522.672 393.878 523.968C392.646 524.369 391.378 524.654 390.093 524.819C389.626 524.915 389.148 524.942 388.673 524.901Z"/><path fill="#fff" d="M371.611 485.679C371.811 485.567 372.024 485.48 372.246 485.422C372.679 485.287 373.301 485.098 374.126 484.881C376.466 484.265 378.888 484.019 381.305 484.151C382.983 484.278 384.628 484.685 386.172 485.354C387.97 486.13 389.536 487.36 390.715 488.924C392.009 490.697 392.636 492.871 392.486 495.062C392.399 496.227 392.043 497.356 391.445 498.361C390.84 499.419 389.883 500.232 388.741 500.659C388.138 500.864 387.493 500.908 386.869 500.784C386.244 500.661 385.664 500.375 385.185 499.956C384.373 499.062 383.933 497.892 383.955 496.684C383.885 494.53 384.31 492.388 385.198 490.424C386.432 487.626 388.566 485.319 391.26 483.872C393.955 482.424 397.056 481.918 400.07 482.434C400.719 482.535 401.357 482.693 401.977 482.907C402.396 483.069 402.612 483.164 402.599 483.191C402.585 483.218 401.693 482.907 400.03 482.704C397.68 482.42 395.296 482.727 393.094 483.597C389.833 484.905 387.222 487.453 385.834 490.681C385.008 492.557 384.615 494.595 384.685 496.644C384.656 497.678 385.024 498.684 385.712 499.456C386.1 499.786 386.567 500.009 387.067 500.104C387.567 500.199 388.083 500.162 388.565 499.997C389.566 499.626 390.408 498.919 390.944 497.996C391.482 497.084 391.806 496.063 391.891 495.008C392.033 492.977 391.464 490.96 390.282 489.302C389.184 487.814 387.716 486.639 386.023 485.895C384.544 485.223 382.963 484.803 381.345 484.651C378.981 484.475 376.604 484.643 374.288 485.152C372.544 485.49 371.638 485.733 371.611 485.679Z"/><g opacity=".3"><path fill="#000" d="M449.297 516.275C443.672 513.098 438.17 510.651 432.289 507.987C426.407 505.324 420.634 501.876 416.781 496.684C409.521 486.896 410.346 472.768 402.923 463.114C403.41 469.604 403.892 476.098 404.37 482.597C404.816 488.545 403.91 494.44 407.736 498.483C410.967 501.89 417.268 504.499 421.729 505.973C430.693 508.933 440.347 513.327 449.297 516.275Z" opacity=".3"/></g><path fill="#46A29F" d="M540.8 590.432C540.8 590.432 584.835 602.6 586.606 603.249C589.31 604.182 588.81 613.903 584.686 613.741C582.726 613.673 550.886 614.93 546.83 614.687C542.774 614.444 530.606 609.644 530.606 609.644L540.8 590.432Z"/><path fill="#263238" d="M559.093 607.237C559.637 605.619 560.287 604.038 561.04 602.505C561.987 601.087 563.026 599.733 564.149 598.449C562.582 599.307 561.282 600.579 560.39 602.127C559.498 603.675 559.049 605.438 559.093 607.224V607.237Z"/><path fill="#263238" d="M554.496 605.155C554.712 605.155 555.158 603.114 556.335 600.815C557.511 598.517 558.89 596.908 558.741 596.759C557.456 597.76 556.409 599.033 555.675 600.487C554.94 601.942 554.538 603.54 554.496 605.169V605.155Z"/><path fill="#263238" d="M550.264 604.006C550.48 602.431 550.824 600.875 551.292 599.356C551.982 597.921 552.782 596.543 553.685 595.232C552.289 596.172 551.213 597.516 550.601 599.084C549.99 600.652 549.872 602.37 550.264 604.006Z"/><path fill="#263238" d="M550.981 598.314C551.369 597.27 551.53 596.154 551.454 595.042C551.44 593.831 551.29 592.624 551.008 591.446C550.838 590.75 550.617 590.068 550.345 589.405C550.218 588.985 549.974 588.61 549.642 588.323C549.42 588.158 549.147 588.076 548.87 588.091C548.594 588.106 548.331 588.217 548.128 588.404C547.786 588.732 547.579 589.176 547.547 589.648C547.513 590.035 547.513 590.424 547.547 590.811C547.551 591.535 547.641 592.257 547.817 592.96C548.109 594.14 548.565 595.273 549.169 596.327C549.653 597.343 550.323 598.26 551.143 599.031C551.251 599.031 550.507 597.936 549.629 596.138C549.115 595.097 548.729 593.999 548.479 592.866C548.337 592.204 548.265 591.528 548.263 590.851C548.263 590.175 548.263 589.337 548.669 589.013C548.748 588.94 548.852 588.9 548.959 588.9C549.067 588.9 549.17 588.94 549.25 589.013C549.47 589.228 549.636 589.492 549.737 589.783C549.996 590.419 550.217 591.069 550.399 591.73C550.709 592.852 550.904 594.003 550.981 595.164C551.062 597.057 550.859 598.301 550.981 598.314Z"/><path fill="#263238" d="M550.927 597.868C550.03 597.493 549.057 597.336 548.087 597.408C547.035 597.408 545.986 597.535 544.964 597.787C544.335 597.93 543.726 598.152 543.153 598.449C542.792 598.633 542.501 598.928 542.323 599.292C542.145 599.655 542.09 600.066 542.166 600.464C542.267 600.843 542.466 601.19 542.744 601.467C543.022 601.745 543.368 601.945 543.747 602.046C544.395 602.208 545.074 602.208 545.721 602.046C546.763 601.808 547.741 601.346 548.588 600.694C549.389 600.157 550.082 599.473 550.629 598.679C549.816 599.155 549.035 599.683 548.29 600.261C547.472 600.822 546.554 601.222 545.586 601.437C545.049 601.572 544.487 601.572 543.95 601.437C543.696 601.373 543.464 601.243 543.276 601.06C543.089 600.877 542.953 600.648 542.882 600.396C542.841 600.148 542.882 599.894 542.999 599.672C543.117 599.449 543.303 599.272 543.531 599.166C544.033 598.889 544.57 598.68 545.127 598.544C546.097 598.267 547.094 598.095 548.101 598.03C549.818 597.814 550.9 597.99 550.927 597.868Z"/><path fill="#263238" d="M565.853 607.711C566.041 606.365 566.335 605.036 566.731 603.736C567.349 602.528 568.069 601.375 568.881 600.288C567.599 600.987 566.597 602.108 566.045 603.46C565.493 604.812 565.425 606.314 565.853 607.711Z"/><path fill="#263238" d="M535.135 609.752C535.669 610.09 536.241 610.362 536.839 610.563C538.437 611.17 540.072 611.676 541.733 612.078C547.255 613.282 552.902 613.818 558.552 613.673C565.15 613.592 571.098 613.294 575.411 613.119L580.508 612.848C581.135 612.838 581.759 612.774 582.374 612.659C581.753 612.561 581.123 612.53 580.495 612.564H575.398L558.552 612.889C552.954 613.032 547.357 612.579 541.855 611.537C537.636 610.685 535.189 609.603 535.135 609.752Z"/><path fill="#263238" d="M533.837 610.752C533.837 610.847 535.095 610.144 537.136 609.252C539.73 608.027 542.617 607.558 545.465 607.9C548.266 608.507 550.794 610.006 552.671 612.172C553.452 613.095 554.297 613.963 555.199 614.768C554.619 613.693 553.896 612.701 553.049 611.82C552.181 610.811 551.202 609.904 550.129 609.116C548.785 608.122 547.223 607.463 545.573 607.197C542.584 606.835 539.557 607.406 536.906 608.833C535.787 609.303 534.75 609.951 533.837 610.752Z"/><path fill="#46A29F" d="M494.007 578.277C494.007 578.277 452.339 605.561 450.852 606.669C448.607 608.359 451.176 616.431 455.07 615.038C456.908 614.376 491.871 604.641 495.63 603.181C499.388 601.721 509.515 593.528 509.515 593.528L494.007 578.277Z"/><path fill="#263238" d="M481.636 599.855C481.134 598.14 480.17 596.596 478.849 595.392C477.528 594.188 475.901 593.37 474.146 593.028C475.612 593.906 477.016 594.882 478.351 595.948C479.527 597.181 480.624 598.486 481.636 599.855Z"/><path fill="#263238" d="M485.368 596.475C484.838 594.932 483.973 593.526 482.834 592.357C481.696 591.188 480.313 590.286 478.784 589.715C478.676 589.905 480.501 591.067 482.299 592.852C484.097 594.637 485.179 596.584 485.368 596.475Z"/><path fill="#263238" d="M489.127 594.069C489.121 592.368 488.474 590.731 487.315 589.486C486.346 588.111 484.9 587.147 483.259 586.782C484.513 587.761 485.693 588.832 486.788 589.986C487.674 591.283 488.457 592.648 489.127 594.069Z"/><path fill="#263238" d="M486.72 588.891C486.828 588.891 486.26 587.715 485.787 585.768C485.503 584.639 485.335 583.484 485.287 582.32C485.24 581.636 485.24 580.949 485.287 580.265C485.282 579.957 485.361 579.653 485.517 579.386C485.575 579.294 485.667 579.229 485.773 579.204C485.879 579.178 485.991 579.196 486.085 579.251C486.558 579.44 486.801 580.252 487.031 580.901C487.229 581.544 487.365 582.205 487.437 582.875C487.541 584.033 487.505 585.2 487.328 586.349C487.044 588.323 486.652 589.526 486.761 589.567C487.318 588.6 487.685 587.535 487.842 586.43C488.101 585.246 488.193 584.03 488.113 582.82C488.058 582.097 487.927 581.38 487.72 580.684C487.609 580.311 487.474 579.945 487.315 579.589C487.135 579.146 486.798 578.786 486.368 578.575C486.118 578.459 485.834 578.434 485.567 578.506C485.3 578.577 485.067 578.741 484.908 578.967C484.685 579.343 484.568 579.773 484.57 580.211C484.421 582.137 484.642 584.073 485.219 585.917C485.504 587.003 486.015 588.017 486.72 588.891Z"/><path fill="#263238" d="M486.571 588.445C486.571 588.553 487.599 588.066 489.275 587.647C490.255 587.412 491.256 587.276 492.263 587.242C492.838 587.202 493.415 587.239 493.98 587.35C494.229 587.384 494.46 587.497 494.64 587.672C494.82 587.847 494.94 588.075 494.981 588.323C494.992 588.592 494.932 588.859 494.806 589.096C494.68 589.334 494.493 589.534 494.264 589.675C493.799 589.968 493.27 590.144 492.723 590.189C491.735 590.285 490.738 590.184 489.789 589.891C488.908 589.561 488.004 589.295 487.085 589.094C487.848 589.703 488.72 590.162 489.654 590.446C490.657 590.83 491.732 590.991 492.804 590.919C493.471 590.884 494.118 590.679 494.683 590.324C495.018 590.119 495.291 589.827 495.474 589.48C495.657 589.132 495.744 588.742 495.724 588.35C495.677 587.948 495.499 587.571 495.219 587.279C494.938 586.986 494.57 586.793 494.17 586.728C493.536 586.615 492.89 586.588 492.25 586.647C491.198 586.717 490.159 586.912 489.154 587.228C488.211 587.429 487.327 587.846 486.571 588.445Z"/><path fill="#263238" d="M460.37 613.538C460.37 613.605 461.073 613.119 461.397 611.929C461.721 610.374 461.441 608.755 460.613 607.4C460.213 606.674 459.761 605.979 459.261 605.318C458.855 604.754 458.378 604.245 457.841 603.803C457.457 603.486 456.986 603.293 456.489 603.249C456.138 603.249 455.962 603.317 455.962 603.357C455.962 603.398 456.706 603.425 457.476 604.209C457.931 604.669 458.334 605.176 458.68 605.723C459.165 606.376 459.616 607.053 460.032 607.751C460.779 608.964 461.102 610.391 460.951 611.807C460.792 612.395 460.598 612.973 460.37 613.538Z"/><path fill="#263238" d="M475.336 602.357C475.392 601.625 475.29 600.89 475.035 600.202C474.781 599.513 474.381 598.888 473.863 598.368C473.446 597.764 472.903 597.258 472.27 596.887C471.636 596.515 470.93 596.287 470.199 596.219C471.304 597.003 472.34 597.881 473.295 598.842C474.073 599.954 474.756 601.13 475.336 602.357Z"/><path fill="#263238" d="M505.229 594.975C504.581 595.335 503.966 595.751 503.39 596.218C501.739 597.365 500.024 598.417 498.253 599.369C495.632 600.759 492.922 601.974 490.141 603.006C486.977 604.182 483.381 605.29 479.703 606.372C472.2 608.535 465.413 610.509 460.518 611.983L454.691 613.808C453.972 613.999 453.271 614.252 452.596 614.565C453.333 614.465 454.06 614.307 454.772 614.092L460.627 612.456C465.561 611.104 472.362 609.211 479.866 607.048C483.611 605.953 487.166 604.817 490.33 603.6C493.146 602.53 495.879 601.256 498.51 599.788C500.276 598.787 501.966 597.657 503.566 596.408C504.159 595.977 504.715 595.498 505.229 594.975Z"/><path fill="#263238" d="M506.77 595.529C505.649 595.036 504.459 594.716 503.242 594.583C500.279 594.034 497.22 594.412 494.481 595.664C492.999 596.44 491.728 597.562 490.776 598.936C489.992 600.021 489.334 601.191 488.816 602.424C488.273 603.519 487.887 604.684 487.667 605.886C488.279 604.841 488.821 603.757 489.289 602.641C490.416 600.001 492.371 597.799 494.859 596.367C497.476 595.19 500.372 594.773 503.215 595.164C505.378 595.34 506.743 595.637 506.77 595.529Z"/><path fill="#263238" d="M580.603 511.746C580.603 511.746 593.109 516.208 593.15 530.228C593.258 557.065 538.907 586.66 538.907 586.66L466.575 538.745L462.046 536.907C462.046 536.907 559.728 500.24 580.603 511.746Z"/><path fill="#455A64" d="M503.214 562.946C503.88 562.577 504.514 562.152 505.107 561.675C506.283 560.81 507.973 559.539 510.042 557.93C514.193 554.739 519.817 550.197 525.887 544.991C531.958 539.786 537.285 534.905 541.07 531.296C542.963 529.497 544.477 528.01 545.518 526.969C546.081 526.462 546.596 525.905 547.06 525.306C546.437 525.742 545.854 526.23 545.316 526.766L540.719 530.917C536.839 534.419 531.458 539.245 525.401 544.437C519.344 549.629 513.773 554.225 509.731 557.524L504.931 561.445C504.32 561.899 503.746 562.401 503.214 562.946Z"/><path fill="#455A64" d="M560.188 521.778C555.458 521.277 550.722 522.672 547.019 525.658C547.141 525.861 549.723 524.171 553.428 523.116C557.132 522.062 560.188 522.007 560.188 521.778Z"/><path fill="#455A64" d="M553.955 517.546C552.282 518.256 550.809 519.368 549.668 520.783C548.526 522.198 547.751 523.872 547.411 525.658C547.628 525.658 548.412 523.481 550.237 521.25C552.062 519.02 554.077 517.735 553.955 517.546Z"/><path fill="#263238" d="M584.578 602.56C584.578 602.479 583.712 602.303 582.712 603.128C581.533 604.226 580.793 605.716 580.63 607.319C580.393 608.895 580.618 610.506 581.279 611.956C581.793 613.051 582.36 613.565 582.428 613.511C582.25 612.91 582.028 612.323 581.766 611.753C581.292 610.363 581.153 608.881 581.36 607.427C581.521 605.978 582.114 604.612 583.063 603.506C583.834 602.709 584.591 602.681 584.578 602.56Z"/><path fill="#455A64" d="M563.96 467.873L538.204 533.175L427.3 534.986L425.245 528.983L464.115 527.577L482.799 469.644L563.96 467.873Z"/><path fill="#EBEBEB" d="M512.165 496.184C513.016 495.757 513.973 495.584 514.921 495.687C515.868 495.79 516.766 496.165 517.505 496.766C518.133 497.356 518.568 498.123 518.754 498.964C518.94 499.806 518.867 500.684 518.546 501.484C518.199 502.283 517.635 502.968 516.918 503.463C516.201 503.957 515.36 504.242 514.49 504.283C513.575 504.342 512.665 504.1 511.899 503.595C511.132 503.09 510.552 502.349 510.245 501.484C509.955 500.517 509.98 499.483 510.315 498.531C510.65 497.578 511.279 496.757 512.111 496.184"/><path fill="#263238" d="M545.748 589.932C545.748 589.932 443.564 522.9 439.4 521.507C435.236 520.115 425.096 513.49 414.997 516.275C404.897 519.06 395.812 528.132 391.282 541.382C388.687 548.953 387.47 561.865 386.888 571.558C386.114 583.15 389.87 594.59 397.366 603.466C400.687 607.607 405.098 610.74 410.102 612.511C411.17 612.849 412.279 613.132 413.415 613.376C432.735 617.567 452.623 608.887 463.439 592.366L465.818 588.742C465.818 588.742 532.675 613.295 533.716 612.957L545.748 589.932Z"/><path fill="#455A64" d="M419.336 571.477C419.517 571.568 419.702 571.649 419.891 571.72L421.567 572.383L428.043 574.884L452.122 583.956C462.344 587.769 474.593 592.311 488.342 597.314C502.092 602.316 517.316 607.792 533.594 613.294L533.878 613.403L534.026 613.119L542.017 597.868L546.073 590.094L546.222 589.797L545.938 589.621L467.995 540.138L444.578 525.374L438.224 521.399L436.561 520.385C436.182 520.155 435.98 520.061 435.98 520.061L436.52 520.453L438.143 521.521L444.43 525.577L467.792 540.57L545.613 590.243L545.478 589.756C544.194 592.23 542.774 594.867 541.422 597.53L533.445 612.781L533.891 612.605C517.667 607.116 502.39 601.654 488.626 596.692L452.352 583.496L428.138 574.6L421.621 572.221L419.918 571.626L419.336 571.477Z"/><path fill="#263238" d="M429.936 333.457C431.68 328.739 435.533 326.697 440.414 325.521C442.869 324.95 445.426 324.98 447.867 325.608C450.307 326.237 452.561 327.445 454.434 329.131C456.909 331.389 458.72 334.539 461.776 335.891C466.819 338.176 473.268 334.837 478 337.635C479.421 338.473 480.509 339.776 481.077 341.325C481.646 342.874 481.661 344.572 481.119 346.13C480.577 347.688 479.513 349.011 478.106 349.873C476.699 350.735 475.037 351.083 473.403 350.858C476.688 352.399 477.297 357.347 475.039 360.187C472.781 363.026 468.603 363.796 465.102 362.809C461.65 361.62 458.588 359.512 456.246 356.712C453.785 354.008 451.622 351.101 448.945 348.6C446.376 345.989 442.966 344.371 439.319 344.03C434.411 343.841 429.855 347.153 427.3 351.331C424.744 355.509 423.757 360.47 423.041 365.338C422.324 370.205 421.784 375.153 419.904 379.696C419.688 380.237 419.363 380.818 418.809 380.94C417.984 381.115 417.39 380.21 417.065 379.439C413.365 370.756 411.409 361.431 411.306 351.993C411.238 346.585 411.86 341.407 415.253 337.121C418.647 332.836 426.475 330.172 429.896 333.39"/><path fill="#FFBE9D" d="M418.417 355.265L410.9 409.859C410.599 412.064 410.749 414.307 411.342 416.451C411.935 418.596 412.958 420.597 414.35 422.334C415.741 424.071 417.471 425.506 419.435 426.553C421.398 427.599 423.555 428.235 425.772 428.422C429.97 428.787 434.147 427.524 437.439 424.894C440.731 422.264 442.885 418.468 443.456 414.294C444.01 410.238 444.484 406.763 444.578 406.344C444.578 406.344 458.653 406.952 461.546 393.338C462.898 386.753 464.723 372.963 466.197 360.471C466.94 354.006 465.226 347.498 461.394 342.238C457.562 336.979 451.893 333.352 445.511 332.079L444.159 331.822C429.76 329.767 420.026 340.853 418.417 355.265Z"/><path fill="#EB996E" d="M444.565 406.155C438.236 404.993 432.396 401.977 427.786 397.488C427.786 397.488 430.031 408.142 443.889 409.656L444.565 406.155Z"/><path fill="#263238" d="M460.316 368.826C460.22 369.334 459.929 369.785 459.504 370.081C459.079 370.377 458.555 370.494 458.044 370.407C457.793 370.379 457.55 370.301 457.329 370.176C457.109 370.052 456.916 369.884 456.762 369.684C456.608 369.483 456.496 369.253 456.433 369.008C456.37 368.763 456.357 368.508 456.395 368.258C456.487 367.746 456.777 367.292 457.203 366.993C457.628 366.695 458.154 366.576 458.666 366.662C458.918 366.692 459.162 366.772 459.382 366.898C459.603 367.024 459.795 367.193 459.949 367.394C460.103 367.596 460.215 367.827 460.278 368.073C460.341 368.319 460.354 368.575 460.316 368.826Z"/><path fill="#263238" d="M461.857 366.581C461.559 366.798 460.302 365.405 458.206 364.986C456.111 364.567 454.353 365.324 454.15 364.986C453.948 364.648 454.407 364.445 455.178 364.094C456.205 363.637 457.351 363.518 458.45 363.756C459.541 363.964 460.537 364.519 461.289 365.337C461.87 365.986 461.992 366.5 461.857 366.581Z"/><path fill="#263238" d="M439.603 365.419C439.511 365.93 439.22 366.384 438.795 366.683C438.37 366.982 437.844 367.1 437.332 367.014C437.08 366.982 436.837 366.901 436.617 366.775C436.397 366.649 436.204 366.48 436.049 366.279C435.894 366.078 435.781 365.848 435.716 365.603C435.65 365.358 435.634 365.102 435.669 364.851C435.77 364.344 436.063 363.896 436.486 363.599C436.908 363.302 437.429 363.179 437.94 363.255C438.192 363.285 438.436 363.365 438.657 363.491C438.878 363.617 439.072 363.785 439.227 363.987C439.382 364.188 439.495 364.419 439.56 364.665C439.624 364.911 439.639 365.167 439.603 365.419Z"/><path fill="#263238" d="M441.158 362.863C440.86 363.066 439.603 361.674 437.507 361.254C435.412 360.835 433.654 361.592 433.451 361.254C433.248 360.916 433.708 360.714 434.479 360.362C435.508 359.912 436.651 359.794 437.751 360.024C438.842 360.245 439.838 360.798 440.603 361.606C441.171 362.336 441.293 362.769 441.158 362.863Z"/><path fill="#263238" d="M445.66 379.912C446.834 379.781 448.02 379.804 449.188 379.98C449.743 379.98 450.27 379.98 450.432 379.669C450.604 379.132 450.604 378.556 450.432 378.019C450.189 376.667 449.932 375.153 449.662 373.612C448.621 367.366 447.985 362.282 448.228 362.241C448.472 362.201 449.58 367.23 450.567 373.477C450.811 375.018 451.054 376.478 451.27 377.884C451.482 378.6 451.429 379.367 451.122 380.047C451.007 380.218 450.855 380.36 450.677 380.464C450.499 380.567 450.299 380.628 450.094 380.642C449.785 380.686 449.471 380.686 449.161 380.642C447.968 380.546 446.792 380.3 445.66 379.912Z"/><path fill="#263238" d="M439.197 380.156C439.549 380.156 439.089 382.481 440.711 384.482C442.334 386.483 444.767 386.726 444.767 387.051C444.767 387.375 444.146 387.375 443.118 387.2C441.779 386.953 440.569 386.245 439.697 385.199C438.872 384.185 438.47 382.892 438.575 381.589C438.683 380.615 439.049 380.102 439.197 380.156Z"/><path fill="#263238" d="M443.334 354.738C443.023 355.278 440.982 354.589 438.454 354.386C435.925 354.183 433.816 354.467 433.586 353.886C433.492 353.615 433.951 353.156 434.857 352.764C436.059 352.289 437.356 352.104 438.643 352.223C439.937 352.322 441.189 352.73 442.293 353.413C443.118 353.953 443.456 354.494 443.334 354.738Z"/><path fill="#263238" d="M462.29 360.362C461.83 360.768 460.491 359.984 458.747 359.605C457.003 359.227 455.475 359.294 455.246 358.726C455.137 358.456 455.462 358.023 456.206 357.699C457.174 357.317 458.237 357.246 459.248 357.496C460.267 357.711 461.191 358.246 461.884 359.024C462.384 359.632 462.506 360.159 462.29 360.362Z"/><path fill="#FFBE9D" d="M417.511 365.594C417.295 365.446 408.683 360.944 407.114 370.34C405.546 379.736 415.308 379.371 415.362 379.101C415.416 378.83 417.511 365.594 417.511 365.594Z"/><path fill="#EB996E" d="M413.09 375.059C413.09 375.059 412.914 375.153 412.617 375.234C412.2 375.334 411.76 375.271 411.387 375.059C410.839 374.576 410.432 373.954 410.209 373.259C409.985 372.565 409.953 371.822 410.116 371.111C410.224 370.299 410.515 369.522 410.968 368.839C411.096 368.559 411.289 368.314 411.531 368.123C411.773 367.933 412.058 367.803 412.36 367.744C412.558 367.728 412.756 367.781 412.919 367.894C413.081 368.008 413.2 368.175 413.252 368.366C413.334 368.637 413.252 368.826 413.252 368.839C413.252 368.853 413.482 368.718 413.469 368.326C413.455 368.085 413.359 367.856 413.198 367.677C413.089 367.555 412.955 367.458 412.807 367.391C412.658 367.323 412.497 367.287 412.333 367.285C411.936 367.296 411.549 367.409 411.208 367.613C410.868 367.816 410.585 368.104 410.386 368.447C409.849 369.196 409.501 370.063 409.372 370.976C409.115 372.882 409.791 374.815 411.089 375.424C411.33 375.54 411.593 375.6 411.86 375.6C412.127 375.6 412.39 375.54 412.631 375.424C413.036 375.288 413.117 375.086 413.09 375.059Z"/><path fill="#263238" d="M469.577 358.28C466.4 358.451 463.227 357.867 460.32 356.574C457.413 355.281 454.854 353.318 452.853 350.844C450.149 347.356 448.35 342.8 444.443 340.69C443.097 340.028 441.634 339.64 440.137 339.547C438.64 339.454 437.14 339.659 435.723 340.15C432.902 341.158 430.316 342.731 428.124 344.773C429.368 352.237 426.056 359.646 422.825 366.406C422.546 367.203 422.008 367.884 421.297 368.339C420.026 368.974 418.512 367.974 417.741 366.771C416.661 364.753 416.191 362.466 416.389 360.186C416.418 354.992 417.475 349.855 419.499 345.071C421.554 340.273 424.971 336.183 429.328 333.309C434.915 329.897 441.609 328.787 447.999 330.212C454.352 331.69 460.08 335.129 464.372 340.041C466.463 342.219 467.982 344.88 468.793 347.788"/><path fill="#263238" d="M91.2058 578.453C91.265 578.256 91.3466 578.065 91.4492 577.886L92.2063 576.25C93.1386 574.135 93.8938 571.946 94.4641 569.706C95.9513 563.892 96.4651 555.01 94.2613 544.464C93.0757 538.712 91.5131 533.044 89.5834 527.497C87.596 521.48 85.2976 515.099 83.4183 508.19C81.2965 500.985 80.271 493.501 80.3763 485.99C80.6602 478.135 82.9857 470.293 85.5409 462.492C88.0962 454.691 90.7326 447.039 91.5168 439.36C92.403 431.971 90.9212 424.491 87.285 417.998C83.8915 411.752 79.6462 406.425 76.469 400.895C73.4911 395.775 71.2946 390.238 69.9524 384.468C68.0373 376.104 67.8991 367.431 69.5468 359.01C70.1529 355.932 71.0585 352.921 72.2508 350.02C72.2191 350.226 72.1693 350.43 72.1021 350.628L71.5613 352.345C68.3802 362.728 68.0394 373.774 70.5743 384.333C71.9291 390.037 74.1302 395.505 77.1045 400.557C80.2817 405.965 84.554 411.373 88.0016 417.633C91.6942 424.254 93.2035 431.871 92.3145 439.4C91.5168 447.215 88.8533 454.908 86.3116 462.709C83.7698 470.51 81.4579 478.257 81.174 485.977C81.0563 493.411 82.0543 500.822 84.1349 507.96C85.9871 514.828 88.272 521.21 90.2189 527.253C92.1322 532.832 93.6724 538.532 94.8292 544.315C96.9789 554.942 96.3569 563.919 94.8292 569.747C94.2332 571.994 93.4275 574.18 92.4226 576.277C92.0711 576.953 91.7872 577.48 91.5844 577.886C91.4768 578.087 91.35 578.277 91.2058 578.453Z"/><path fill="#46A29F" d="M80.7819 406.344C80.7819 406.344 74.3059 385.658 85.9195 373.544C86.0095 373.447 86.1248 373.376 86.2525 373.341C86.3802 373.305 86.5154 373.305 86.6429 373.342C86.7705 373.378 86.8854 373.449 86.9749 373.547C87.0644 373.645 87.125 373.766 87.1499 373.896C87.7718 377.317 88.5424 387.727 80.7819 406.344Z"/><path fill="#263238" d="M84.6621 380.439C84.6404 381.722 84.491 382.999 84.216 384.252C83.7968 386.956 83.2966 389.971 82.7423 393.378C82.188 396.785 81.7148 399.881 81.2956 402.504C81.1863 403.785 80.9554 405.053 80.6061 406.29C80.4968 405.005 80.5376 403.712 80.7278 402.436C80.9441 400.07 81.3632 396.826 81.9446 393.256C82.526 389.687 83.1479 386.496 83.6616 384.157C83.8512 382.884 84.1869 381.636 84.6621 380.439Z"/><path fill="#46A29F" d="M88.3801 455.151C88.3801 455.151 92.3415 433.83 108.268 428.584C108.394 428.541 108.529 428.533 108.659 428.561C108.788 428.59 108.908 428.654 109.003 428.747C109.099 428.839 109.166 428.957 109.199 429.086C109.231 429.215 109.227 429.35 109.187 429.477C108.16 432.749 103.955 442.321 88.3801 455.151Z"/><path fill="#263238" d="M103.928 434.06C103.31 435.184 102.581 436.244 101.751 437.224C100.156 439.36 98.2632 441.848 96.1811 444.606L90.5839 452.001C89.8851 453.077 89.0885 454.086 88.2043 455.016C88.707 453.828 89.3468 452.703 90.1107 451.663C91.4627 449.676 93.2879 446.999 95.5187 444.119C97.7495 441.239 99.7639 438.711 101.292 436.872C102.059 435.836 102.944 434.893 103.928 434.06Z"/><path fill="#46A29F" d="M84.0807 508.623C84.0807 508.623 81.6742 487.072 95.3834 477.391C95.4914 477.313 95.6189 477.267 95.7517 477.258C95.8845 477.248 96.0173 477.276 96.1352 477.338C96.2531 477.399 96.3515 477.493 96.4193 477.607C96.4871 477.722 96.5217 477.853 96.5191 477.986C96.4786 481.447 95.2482 491.817 84.0807 508.623Z"/><path fill="#263238" d="M92.8283 483.922C92.5711 485.181 92.1814 486.409 91.6655 487.586C90.7462 490.087 89.6781 492.994 88.4748 496.266L85.3247 504.945C84.9896 506.18 84.5368 507.38 83.9727 508.528C84.1158 507.248 84.4014 505.987 84.8244 504.77C85.4869 502.485 86.5144 499.362 87.7718 495.982C89.0291 492.602 90.2595 489.56 91.1923 487.383C91.6049 486.171 92.1537 485.01 92.8283 483.922Z"/><path fill="#46A29F" d="M96.073 562.432C96.073 562.432 94.4371 540.8 108.484 531.634C108.594 531.558 108.723 531.515 108.856 531.508C108.989 531.502 109.121 531.533 109.238 531.597C109.355 531.662 109.451 531.758 109.516 531.874C109.581 531.99 109.612 532.122 109.607 532.256C109.431 535.703 107.835 546.019 96.073 562.432Z"/><path fill="#263238" d="M105.699 538.096C105.375 539.347 104.922 540.562 104.347 541.72C103.333 544.18 102.157 547.128 100.846 550.264L97.371 558.836C97.0167 560.029 96.5551 561.187 95.9919 562.297C96.1737 561.023 96.505 559.775 96.9789 558.579C97.709 556.321 98.8582 553.252 100.237 549.913C101.616 546.573 102.941 543.572 103.955 541.436C104.412 540.262 104.997 539.142 105.699 538.096Z"/><path fill="#46A29F" d="M71.4801 388.173C71.4801 388.173 52.2682 378.141 51.8896 361.363C51.8837 361.229 51.9151 361.097 51.9802 360.981C52.0453 360.865 52.1415 360.769 52.2581 360.704C52.3747 360.639 52.507 360.609 52.6401 360.615C52.7733 360.622 52.902 360.665 53.0118 360.741C55.8645 362.715 63.7737 369.515 71.4801 388.173Z"/><path fill="#263238" d="M55.8779 367.122C56.776 368.038 57.5778 369.044 58.271 370.124L63.679 377.614L69.087 385.09C69.9108 386.072 70.6439 387.126 71.2772 388.24C70.2606 387.426 69.3519 386.486 68.5732 385.442C67.0454 383.63 65.031 381.034 62.9218 378.1C60.8127 375.166 58.974 372.449 57.6896 370.448C56.9608 369.412 56.353 368.296 55.8779 367.122Z"/><path fill="#46A29F" d="M92.1115 432.64C92.1115 432.64 72.3318 423.798 70.9257 407.074C70.9145 406.942 70.9397 406.811 70.9987 406.693C71.0577 406.575 71.148 406.475 71.2599 406.405C71.3717 406.335 71.5007 406.298 71.6325 406.296C71.7644 406.295 71.8941 406.33 72.0073 406.398C74.9817 408.142 83.2965 414.456 92.1115 432.64Z"/><path fill="#263238" d="M75.2656 412.55C76.2149 413.413 77.0755 414.368 77.8344 415.403L83.7021 422.555L89.5833 429.68C90.4611 430.588 91.2489 431.58 91.9358 432.64C90.9048 431.847 89.9661 430.94 89.1372 429.936C87.5012 428.206 85.338 425.745 83.0531 422.947C80.7683 420.148 78.7673 417.539 77.3747 415.632C76.5574 414.688 75.8499 413.654 75.2656 412.55Z"/><path fill="#46A29F" d="M80.7277 482.178C80.7277 482.178 67.1402 465.278 73.5216 449.73C73.5701 449.607 73.6517 449.5 73.7572 449.42C73.8628 449.341 73.9883 449.292 74.1198 449.28C74.2513 449.267 74.3837 449.291 74.5024 449.349C74.6211 449.407 74.7215 449.497 74.7925 449.608C76.6177 452.596 81.1198 461.992 80.7277 482.178Z"/><path fill="#263238" d="M74.8602 456.638C75.315 457.836 75.6457 459.077 75.8471 460.343C76.415 462.952 77.0775 466.008 77.8211 469.388C78.5647 472.768 79.1731 475.81 79.8085 478.405C80.1702 479.638 80.4191 480.9 80.5521 482.178C79.9518 481.031 79.4976 479.814 79.2001 478.554C78.5241 476.269 77.7264 473.146 76.9693 469.55C76.2122 465.953 75.6173 462.79 75.2388 460.464C74.973 459.207 74.8461 457.924 74.8602 456.638Z"/><path fill="#46A29F" d="M94.1937 540.503C94.1937 540.503 74.5491 531.336 73.4405 514.571C73.432 514.441 73.4592 514.311 73.5193 514.195C73.5793 514.079 73.6699 513.982 73.7813 513.914C73.8926 513.845 74.0205 513.809 74.151 513.808C74.2816 513.807 74.4099 513.842 74.5221 513.909C77.4695 515.761 85.6761 522.21 94.1937 540.503Z"/><path fill="#263238" d="M77.6724 520.155C78.6111 521.031 79.4582 522.001 80.2006 523.049C81.85 525.144 83.7969 527.591 85.9466 530.295L91.7061 537.528C92.5721 538.475 93.3504 539.497 94.0316 540.584C93.0257 539.794 92.1179 538.886 91.3276 537.88C89.7322 536.136 87.6096 533.635 85.3788 530.796C83.148 527.956 81.12 525.333 79.768 523.4C78.9553 522.397 78.2527 521.309 77.6724 520.155Z"/><path fill="#263238" d="M133.307 455.259C133.326 455.421 133.326 455.584 133.307 455.746C133.307 456.125 133.307 456.571 133.307 457.098C133.307 458.45 133.172 460.167 133.077 462.357C132.82 466.981 132.469 473.417 132.05 481.137C130.698 488.978 126.642 497.672 121.234 506.108C117.299 512.327 113.122 517.992 109.62 523.251C106.383 527.843 103.469 532.654 100.9 537.65C99.2197 541.04 97.8617 544.579 96.8435 548.223C96.492 549.507 96.2351 550.521 96.0864 551.211C96.0267 551.566 95.9316 551.915 95.8025 552.252C95.8068 551.893 95.8476 551.535 95.9242 551.184C96.0188 550.481 96.2351 549.453 96.5326 548.142C97.4501 544.414 98.7457 540.79 100.399 537.326C102.912 532.269 105.791 527.402 109.012 522.765C112.54 517.465 116.65 511.8 120.571 505.621C125.979 497.212 129.873 488.654 131.387 480.934C131.928 473.241 132.374 466.805 132.739 462.182C132.915 459.991 133.064 458.234 133.158 456.936C133.158 456.395 133.266 455.935 133.307 455.584C133.295 455.476 133.295 455.367 133.307 455.259Z"/><path fill="#46A29F" d="M121.68 504.567C121.68 504.567 129.995 484.543 119.53 471.429C119.449 471.324 119.34 471.243 119.216 471.196C119.092 471.149 118.957 471.138 118.827 471.163C118.696 471.188 118.575 471.249 118.477 471.339C118.38 471.429 118.309 471.545 118.273 471.672C117.286 475.025 115.569 485.368 121.68 504.567Z"/><path fill="#263238" d="M120.098 478.419C120.456 479.653 120.679 480.922 120.76 482.205C121.058 484.557 121.382 487.815 121.639 491.425C121.896 495.035 122.018 498.307 122.018 500.673C122.101 501.957 122.024 503.247 121.788 504.513C121.553 503.256 121.44 501.979 121.45 500.7C121.274 497.996 121.058 494.927 120.828 491.479C120.598 488.032 120.368 484.909 120.193 482.259C120.035 480.985 120.003 479.699 120.098 478.419Z"/><g opacity=".3"><path fill="#000" d="M121.68 504.567C121.68 504.567 129.995 484.543 119.53 471.429C119.449 471.324 119.34 471.243 119.216 471.196C119.092 471.149 118.957 471.138 118.827 471.163C118.696 471.188 118.575 471.249 118.477 471.339C118.38 471.429 118.309 471.545 118.273 471.672C117.286 475.025 115.569 485.368 121.68 504.567Z" opacity=".3"/></g><path fill="#46A29F" d="M95.8567 552.806C95.8567 552.806 102.522 532.188 91.03 519.966C90.941 519.868 90.8267 519.798 90.6999 519.761C90.5732 519.724 90.4387 519.724 90.3115 519.759C90.1842 519.793 90.0691 519.863 89.9788 519.959C89.8885 520.055 89.8265 520.175 89.7997 520.304C89.1372 523.711 88.2719 534.108 95.8567 552.806Z"/><path fill="#263238" d="M92.2197 526.861C92.6791 528.065 93.0011 529.317 93.1796 530.593C93.6664 532.905 94.2612 536.123 94.8156 539.705C95.3699 543.288 95.7485 546.533 95.9377 548.899C96.1215 550.175 96.1487 551.469 96.0188 552.752C95.6896 551.512 95.4724 550.245 95.3699 548.966C94.9778 546.263 94.5181 543.248 94.0179 539.827C93.5177 536.406 93.0309 533.324 92.6659 530.687C92.3917 529.43 92.2423 528.148 92.2197 526.861Z"/><g opacity=".3"><path fill="#000" d="M95.8567 552.806C95.8567 552.806 102.522 532.188 91.03 519.966C90.941 519.868 90.8267 519.798 90.6999 519.761C90.5732 519.724 90.4387 519.724 90.3115 519.759C90.1842 519.793 90.0691 519.863 89.9788 519.959C89.8885 520.055 89.8265 520.175 89.7997 520.304C89.1372 523.711 88.2719 534.108 95.8567 552.806Z" opacity=".3"/></g><path fill="#46A29F" d="M132.198 480.109C132.198 480.109 149.964 467.671 148.166 450.987C148.154 450.855 148.106 450.728 148.027 450.622C147.947 450.515 147.84 450.433 147.717 450.384C147.593 450.335 147.459 450.321 147.328 450.344C147.197 450.367 147.075 450.426 146.976 450.514C144.407 452.92 137.431 460.613 132.198 480.109Z"/><g opacity=".3"><path fill="#000" d="M132.198 480.109C132.198 480.109 149.964 467.671 148.166 450.987C148.154 450.855 148.106 450.728 148.027 450.622C147.947 450.515 147.84 450.433 147.717 450.384C147.593 450.335 147.459 450.321 147.328 450.344C147.197 450.367 147.075 450.426 146.976 450.514C144.407 452.92 137.431 460.613 132.198 480.109Z" opacity=".3"/></g><path fill="#263238" d="M144.961 457.22C144.603 458.451 144.108 459.639 143.488 460.762C142.474 462.912 141 465.832 139.283 469.023C137.566 472.213 135.917 475.039 134.632 477.04C134.018 478.17 133.259 479.216 132.374 480.15C132.862 478.964 133.455 477.823 134.145 476.743L138.566 468.631L142.974 460.519C143.521 459.354 144.187 458.248 144.961 457.22Z"/><path fill="#46A29F" d="M103.009 532.364C103.009 532.364 124.384 529.024 130.17 513.26C130.218 513.136 130.231 513.001 130.206 512.87C130.181 512.739 130.12 512.617 130.031 512.519C129.941 512.421 129.825 512.35 129.697 512.313C129.569 512.277 129.433 512.277 129.305 512.314C125.966 513.26 116.272 517.167 103.009 532.364Z"/><g opacity=".3"><path fill="#000" d="M103.009 532.364C103.009 532.364 124.384 529.024 130.17 513.26C130.218 513.136 130.231 513.001 130.206 512.87C130.181 512.739 130.12 512.617 130.031 512.519C129.941 512.421 129.825 512.35 129.697 512.313C129.569 512.277 129.433 512.277 129.305 512.314C125.966 513.26 116.272 517.167 103.009 532.364Z" opacity=".3"/></g><path fill="#263238" d="M124.546 517.438C123.682 518.379 122.722 519.226 121.68 519.966C119.828 521.453 117.218 523.427 114.271 525.522C111.323 527.618 108.592 529.443 106.578 530.687C105.519 531.422 104.375 532.025 103.171 532.485C104.127 531.632 105.159 530.867 106.253 530.2L113.811 524.873L121.342 519.465C122.337 518.68 123.411 518.001 124.546 517.438Z"/><path fill="#455A64" d="M82.58 571.788L76.3337 613.835H115.271L110.215 571.788H82.58Z"/><path fill="#263238" d="M111.783 584.808C111.783 585.038 104.753 585.214 96.0729 585.214C87.3931 585.214 80.3762 585.038 80.3762 584.808C85.5982 584.408 90.8372 584.272 96.0729 584.402C101.313 584.272 106.557 584.407 111.783 584.808Z"/><path fill="#263238" d="M112.554 588.12C112.554 588.337 105.294 588.526 96.33 588.526C87.3662 588.526 80.106 588.337 80.106 588.12C80.106 587.904 87.3662 587.715 96.33 587.715C105.294 587.715 112.554 587.931 112.554 588.12Z"/></svg>